<?xml version="1.0" standalone="no"?><!DOCTYPE svg PUBLIC "-//W3C//DTD SVG 1.1//EN" "http://www.w3.org/Graphics/SVG/1.1/DTD/svg11.dtd"><svg class="icon" width="200px" height="200.00px" viewBox="0 0 1024 1024" version="1.1" xmlns="http://www.w3.org/2000/svg"><path d="M254.347479 338.655591m-128.637662 0a128.637663 128.637663 0 1 0 257.275325 0 128.637663 128.637663 0 1 0-257.275325 0Z" fill="#D49EC7" /><path d="M254.347479 230.40683c59.690551 0 108.248761 48.55821 108.248761 108.248761s-48.55821 108.248761-108.248761 108.24876S146.098719 398.346141 146.098719 338.655591s48.55821-108.248761 108.24876-108.248761zM105.320914 338.655591c0 82.175432 66.855211 149.026565 149.026565 149.026565S403.374045 420.826945 403.374045 338.655591 336.518834 189.629026 254.347479 189.629026 105.320914 256.480159 105.320914 338.655591z" fill="#6E6E96" /><path d="M511.622805 338.655591m-128.637663 0a128.637663 128.637663 0 1 0 257.275326 0 128.637663 128.637663 0 1 0-257.275326 0Z" fill="#D49EC7" /><path d="M511.622805 230.40683c59.686473 0 108.244683 48.55821 108.244683 108.248761s-48.55821 108.248761-108.244683 108.24876c-59.690551 0-108.248761-48.562288-108.24876-108.24876 0-59.686473 48.55821-108.248761 108.24876-108.248761zM362.59624 338.655591c0 82.175432 66.855211 149.026565 149.026565 149.026565s149.022488-66.855211 149.022488-149.026565-66.859289-149.026565-149.022488-149.026565c-82.175432 0-149.026565 66.851133-149.026565 149.026565z" fill="#6E6E96" /><path d="M769.656598 338.655591m-128.633585 0a128.633585 128.633585 0 1 0 257.26717 0 128.633585 128.633585 0 1 0-257.26717 0Z" fill="#D49EC7" /><path d="M769.656598 230.410908c59.686473 0 108.244683 48.55821 108.244683 108.244683 0 59.686473-48.55821 108.244683-108.244683 108.244683s-108.244683-48.55821-108.244682-108.244683c0-59.686473 48.55821-108.244683 108.244682-108.244683z m-149.022487 108.244683c0 82.171354 66.855211 149.022488 149.022487 149.022487s149.022488-66.851133 149.022488-149.022487c0-82.171354-66.855211-149.022488-149.022488-149.022488s-149.022488 66.851133-149.022487 149.022488z" fill="#6E6E96" /><path d="M382.985142 586.861933m-128.637663 0a128.637663 128.637663 0 1 0 257.275326 0 128.637663 128.637663 0 1 0-257.275326 0Z" fill="#D49EC7" /><path d="M382.985142 478.613172c59.690551 0 108.248761 48.55821 108.248761 108.248761s-48.562288 108.248761-108.248761 108.24876c-59.686473 0-108.248761-48.55821-108.24876-108.24876s48.55821-108.248761 108.24876-108.248761z m-149.026565 108.248761c0 82.171354 66.855211 149.026565 149.026565 149.026565 82.175432 0 149.030643-66.855211 149.030643-149.026565s-66.855211-149.026565-149.030643-149.026565c-82.175432 0-149.026565 66.855211-149.026565 149.026565z" fill="#6E6E96" /><path d="M641.014858 586.861933m-128.637663 0a128.637663 128.637663 0 1 0 257.275326 0 128.637663 128.637663 0 1 0-257.275326 0Z" fill="#D49EC7" /><path d="M641.014858 478.613172c59.690551 0 108.248761 48.55821 108.24876 108.248761s-48.55821 108.248761-108.24876 108.24876c-59.694628 0-108.248761-48.55821-108.248761-108.24876s48.554132-108.248761 108.248761-108.248761z m-149.026566 108.248761c0 82.171354 66.855211 149.026565 149.026566 149.026565 82.167277 0 149.026565-66.855211 149.026565-149.026565s-66.859289-149.026565-149.026565-149.026565c-82.171354 0-149.026565 66.855211-149.026566 149.026565z" fill="#6E6E96" /><path d="M512.002039 834.19563m-128.637663 0a128.637663 128.637663 0 1 0 257.275326 0 128.637663 128.637663 0 1 0-257.275326 0Z" fill="#D49EC7" /><path d="M512.002039 725.946869c59.690551 0 108.248761 48.55821 108.24876 108.244683 0 59.690551-48.55821 108.252838-108.24876 108.252838s-108.248761-48.562288-108.248761-108.252838c0-59.682395 48.55821-108.244683 108.248761-108.244683zM362.975474 834.191552c0 82.175432 66.855211 149.030643 149.026565 149.030643 82.175432 0 149.026565-66.855211 149.026565-149.030643 0-82.171354-66.859289-149.022488-149.026565-149.022487s-149.026565 66.851133-149.026565 149.022487zM531.673252 206.282681l0.016311 0.097867c-0.705456-4.008458-16.041988-98.767921 90.351382-147.040687a20.388902 20.388902 0 0 0-16.845311-37.132269C469.111944 83.949267 491.339925 212.460518 491.580514 213.749097a20.388902 20.388902 0 0 0 40.092738-7.466416z" fill="#6E6E96" /><path d="M228.592218 299.276465m-27.186562 0a27.186562 27.186562 0 1 0 54.373124 0 27.186562 27.186562 0 1 0-54.373124 0Z" fill="#FFFFFF" /><path d="M489.570168 299.276465m-27.182484 0a27.182485 27.182485 0 1 0 54.364969 0 27.182485 27.182485 0 1 0-54.364969 0Z" fill="#FFFFFF" /><path d="M739.676756 299.276465m-27.182484 0a27.182485 27.182485 0 1 0 54.364969 0 27.182485 27.182485 0 1 0-54.364969 0Z" fill="#FFFFFF" /><path d="M345.489951 549.383053m-27.186563 0a27.186562 27.186562 0 1 0 54.373125 0 27.186562 27.186562 0 1 0-54.373125 0Z" fill="#FFFFFF" /><path d="M602.540999 549.38713m-27.182485 0a27.182485 27.182485 0 1 0 54.364969 0 27.182485 27.182485 0 1 0-54.364969 0Z" fill="#FFFFFF" /><path d="M478.694728 802.213598m-27.186562 0a27.186562 27.186562 0 1 0 54.373124 0 27.186562 27.186562 0 1 0-54.373124 0Z" fill="#FFFFFF" /><path d="M336.559612 239.728636a128.425618 128.425618 0 0 1 7.686616 43.876918c0-11.279141 1.459845-22.21167 4.18788-32.630399a128.935341 128.935341 0 0 0-11.874496-11.246519z m175.067271 227.568696c2.821824 0 5.611026-0.122333 8.392072-0.301756 13.004042-5.252181 27.940952-8.620428 43.730118-10.732718 35.582712-15.793244 62.671408-47.228853 72.494781-85.59669 0-64.017076-28.144841-92.867373-33.955678-87.056536-7.813027 7.813027 1.398679-21.775348 4.016614-32.010577a129.922164 129.922164 0 0 0-12.47393-11.870419 128.335907 128.335907 0 0 1 7.686616 43.880996c0 71.043091-57.590494 128.641741-128.629507 128.641741a128.095318 128.095318 0 0 1-82.21621-29.714786c17.938156 49.434933 65.317888 84.760745 120.955124 84.760745z m-4.020691 151.587411c-2.361035-72.029914-33.967911-87.072847-33.967912-87.072847 0-11.495263 2.161224-21.318636 6.039193-29.739253a129.367586 129.367586 0 0 0-18.668079-17.456978c7.694772 10.903985 11.874497 26.057017 11.874497 47.196231 0 71.047169-57.598649 128.637663-128.641741 128.637663a128.083085 128.083085 0 0 1-82.212132-29.70663c16.812689 46.331742 59.490739 80.226253 110.581251 84.304033 20.46638-15.715766 50.548167-21.946615 84.813756-23.308593 24.417749-17.359111 42.53125-43.000195 50.181167-72.853626zM378.797262 371.28599c0-65.264877-34.551034-87.680436-34.551034-87.680436 0 71.043091-57.590494 128.641741-128.637663 128.641741a128.111629 128.111629 0 0 1-82.212132-29.710708c17.938156 49.439011 65.31381 84.760745 120.951046 84.760745 2.018501 0 4.020692-0.061167 6.018804-0.150878 11.678763-4.196036 25.066117-6.683482 39.452527-8.143328 38.641048-14.610687 68.404767-47.273709 78.978452-87.717136z m473.067391-131.557354a128.327752 128.327752 0 0 1 7.686616 43.876918c0 71.043091-57.590494 128.633585-128.633585 128.633586a128.095318 128.095318 0 0 1-82.208055-29.706631c17.934079 49.439011 65.317888 84.756667 120.946969 84.756667 71.043091 0 128.633585-57.590494 128.633585-128.633585 0-39.778749-18.064568-75.328839-46.42553-98.926955zM589.271901 731.358084c8.094394 12.200719 12.632964 27.851241 12.632964 47.791587 0 71.051247-57.590494 128.641741-128.637663 128.641741a128.095318 128.095318 0 0 1-82.208054-29.706631c17.938156 49.439011 65.31381 84.756667 120.946969 84.756667 71.047169 0 128.637663-57.590494 128.637663-128.64174-0.004078-42.050072-20.180936-79.373997-51.371879-102.841624z m134.954145-242.554538c4.469247 10.830585 6.68756 24.845916 6.68756 43.00835 0 71.047169-57.594571 128.637663-128.637663 128.637663a128.083085 128.083085 0 0 1-82.212132-29.70663c17.938156 49.434933 65.321965 84.756667 120.951047 84.756667 71.043091 0 128.637663-57.590494 128.637663-128.637663 0-39.301648-17.644556-74.464349-45.426475-98.058387z" fill="#6E6E96" /><path d="M390.012329 602.884356a56.118415 66.296555 53.778 1 0-66.32248-90.545208 56.118415 66.296555 53.778 1 0 66.32248 90.545208Z" fill="#FFFFFF" /><path d="M783.548296 350.060143a56.114337 66.296555 53.778 1 0-66.317661-90.538629 56.114337 66.296555 53.778 1 0 66.317661 90.538629Z" fill="#FFFFFF" /><path d="M530.721503 352.107276a56.110259 66.300633 53.778 1 0-66.312841-90.53205 56.110259 66.300633 53.778 1 0 66.312841 90.53205Z" fill="#FFFFFF" /><path d="M275.889914 352.097518a56.114337 66.292477 53.778 1 0-66.31766-90.538629 56.114337 66.292477 53.778 1 0 66.31766 90.538629Z" fill="#FFFFFF" /><path d="M646.919473 602.883699a56.114337 66.296555 53.778 1 0-66.31766-90.538628 56.114337 66.296555 53.778 1 0 66.31766 90.538628Z" fill="#FFFFFF" /><path d="M521.512322 852.652947a56.114337 66.296555 53.778 1 0-66.317661-90.538628 56.114337 66.296555 53.778 1 0 66.317661 90.538628Z" fill="#FFFFFF" /></svg>