<?xml version="1.0" standalone="no"?><!DOCTYPE svg PUBLIC "-//W3C//DTD SVG 1.1//EN" "http://www.w3.org/Graphics/SVG/1.1/DTD/svg11.dtd"><svg class="icon" width="200px" height="200.00px" viewBox="0 0 1024 1024" version="1.1" xmlns="http://www.w3.org/2000/svg"><path d="M324.650839 566.004468V38.874214h380.656306v527.130254" fill="#93DBCF" /><path d="M855.091539 566.004468h-229.983944L511.742203 319.848851 404.854481 566.004468h-229.971667l191.105637 171.672622-55.062255 233.204365 200.816007-139.280171 217.012232 132.806592-64.772625-249.400591z" fill="#FFD28F" /><path d="M643.926807 38.874214h40.920226v527.130254h-40.920226z" fill="#6E6E96" /><path d="M684.847033 566.004468V38.874214a20.460113 20.460113 0 0 0 20.460112 20.460113H324.650839a20.460113 20.460113 0 0 0 20.460113-20.460113v527.130254h-40.920225V38.874214a20.460113 20.460113 0 0 1 20.460112-20.460113h380.656306a20.460113 20.460113 0 0 1 20.460113 20.460113v527.130254h-40.920225z" fill="#6E6E96" /><path d="M497.833418 31.189396h42.634783v324.043174H497.833418z" fill="#6E6E96" /><path d="M454.535727 415.839516l43.297691-20.460113V59.334327H454.535727z" fill="#6E6E96" /><path d="M310.926196 970.881455l203.119815-301.336541 214.708424 294.862962-217.012232-132.806592zM174.882814 566.004468l339.163197 103.540446-148.05756 68.132176zM855.091539 566.004468l-341.045528 103.540446 149.935799 45.462371z" fill="#EBC184" /><path d="M514.046011 669.544914V324.857487L404.854481 566.004468zM514.046011 669.544914l111.061584-103.540446h229.983944z" fill="#FFFFFF" /><path d="M404.854481 566.004468h-229.971667l339.163197 103.540446z" fill="#FFFFFF" /><path d="M511.742203 831.601284l2.303808-162.05637-203.119815 301.336541z" fill="#D9B27A" /><path d="M855.091539 545.544355h-229.983944a20.460113 20.460113 0 0 1 18.581875 11.899601L530.328169 311.28834a20.460113 20.460113 0 0 0-37.360166 0.409202l-106.879537 246.155617a20.464205 20.464205 0 0 1 18.766015-12.312896h-229.971667a20.451929 20.451929 0 0 0-19.105653 13.143576 20.451929 20.451929 0 0 0 5.434206 22.538861l191.101545 171.672622a20.472389 20.472389 0 0 1-6.236243-19.924058l-55.062255 233.204365a20.468297 20.468297 0 0 0 31.574046 21.515855l200.811915-139.280172a20.460113 20.460113 0 0 1-22.338351 0.638356l217.012232 132.806592a20.460113 20.460113 0 0 0 30.481476-22.592057l-64.768533-249.396498a20.431469 20.431469 0 0 1-7.230604 21.274425l191.109729-148.998725a20.451929 20.451929 0 0 0 6.768206-22.784382 20.443745 20.443745 0 0 0-19.342991-13.814668z m-210.915118 174.606602l64.772625 249.400591a20.460113 20.460113 0 0 1 30.485568-22.587965L522.422381 814.148807a20.476481 20.476481 0 0 0-22.342443 0.638356l-200.811915 139.280172a20.460113 20.460113 0 0 1 31.578139 21.515854l55.058163-233.204365a20.460113 20.460113 0 0 0-6.236242-19.924058L188.562445 550.786236a20.460113 20.460113 0 0 1-13.671447 35.682436h229.971667a20.460113 20.460113 0 0 0 18.766016-12.312895l106.883629-246.151525a20.460113 20.460113 0 0 1-37.34789 0.409202l113.361301 246.155617a20.472389 20.472389 0 0 0 18.585966 11.899601h229.983944a20.460113 20.460113 0 0 1-12.582969-36.594957l-191.10973 149.006909a20.435561 20.435561 0 0 0-7.226511 21.270333z" fill="#6E6E96" /><path d="M228.275524 586.46458l245.836439 45.212758 39.934048-257.907906v295.775482z" fill="#FFF3E0" /></svg>