<?xml version="1.0" standalone="no"?><!DOCTYPE svg PUBLIC "-//W3C//DTD SVG 1.1//EN" "http://www.w3.org/Graphics/SVG/1.1/DTD/svg11.dtd"><svg class="icon" width="200px" height="181.24px" viewBox="0 0 1130 1024" version="1.1" xmlns="http://www.w3.org/2000/svg"><path d="M798.80461 696.979065h-160.464519l-79.101161-171.76214-74.576769 171.76214H324.202096l133.344884 119.785066-38.417256 162.704449 140.109206-97.180917 151.420187 92.669884-45.190485-174.024335zM1086.410785 216.289106H925.941813L846.840652 44.53142 772.263883 216.289106h-160.451158l133.335977 119.785067-38.417256 162.708902 140.109206-97.180918 151.420187 92.665432-45.194938-174.019883zM519.133933 216.289106H358.669415L279.568254 44.53142 204.991485 216.289106H44.53142l133.344884 119.785067-38.42171 162.708902L279.568254 401.602157l151.415734 92.665432-45.190485-174.019883z" fill="#FFD28F" /><path d="M89.209793 226.495708l190.518774 71.014255 225.587267-81.220857H369.579613L279.568254 44.53142 208.478295 226.495708zM650.305684 226.495708l190.518773 71.014255 225.59172-81.220857h-135.745127L840.659691 44.53142l-71.085505 181.964288zM369.757739 719.316025l190.518773 71.009802 225.59172-81.220856h-135.745127l-90.011359-171.757687-71.085506 181.968741z" fill="#FFFFFF" /><path d="M798.80461 674.713355h-160.464519a22.274616 22.274616 0 0 1 20.230624 12.949737l-79.105614-171.76214a22.26571 22.26571 0 0 0-40.652733 0.449768l-74.576769 171.757686a22.270163 22.270163 0 0 1 20.422109-13.399504H324.202096a22.261257 22.261257 0 0 0-14.877947 38.831398l133.344883 119.780613a22.279069 22.279069 0 0 1-6.791041-21.682348l-38.417256 162.704449a22.261257 22.261257 0 0 0 9.133394 23.517043 22.279069 22.279069 0 0 0 25.22705-0.09797l140.109206-97.176464a22.256804 22.256804 0 0 1-24.309702 0.69469l151.415734 92.669885a22.26571 22.26571 0 0 0 33.171454-24.581344l-45.190485-174.024336a22.225632 22.225632 0 0 1-7.864248 23.151886l133.335977-103.954147a22.230085 22.230085 0 0 0 7.361044-24.790641 22.238991 22.238991 0 0 0-21.045549-15.038261z m-154.889185 131.821909l45.190485 174.019883a22.26571 22.26571 0 0 1 33.171455-24.585797l-151.415734-92.665432a22.26571 22.26571 0 0 0-24.314155 0.690237L406.438269 961.166167a22.26571 22.26571 0 0 1 34.360444 23.419073l38.417256-162.704449a22.274616 22.274616 0 0 0-6.791042-21.682348l-133.344884-119.77616a22.26571 22.26571 0 0 1-14.877947 38.831398h160.460065a22.26571 22.26571 0 0 0 20.422109-13.399504l74.576769-171.76214a22.256804 22.256804 0 0 1-40.643827 0.449768l79.101162 171.762139a22.26571 22.26571 0 0 0 20.221717 12.949737h160.464519a22.26571 22.26571 0 0 1-13.693412-39.819995l-133.331524 103.954146a22.238991 22.238991 0 0 0-7.864249 23.147432zM1086.410785 194.023396H925.941813a22.283523 22.283523 0 0 1 20.230624 12.95419l-79.105614-171.757686a22.26571 22.26571 0 0 0-40.64828 0.445314l-74.576769 171.757687a22.26571 22.26571 0 0 1 20.422109-13.399505h-160.451158a22.270163 22.270163 0 0 0-14.882401 38.831399l133.331524 119.785066a22.279069 22.279069 0 0 1-6.782135-21.682348l-38.417256 162.708901a22.261257 22.261257 0 0 0 34.360444 23.414621l140.113659-97.180918a22.283523 22.283523 0 0 1-24.318608 0.694691l151.42464 92.665431a22.26571 22.26571 0 0 0 33.171455-24.59025l-45.190485-174.019882a22.243444 22.243444 0 0 1-7.864249 23.156338l133.34043-103.9586a22.256804 22.256804 0 0 0-13.688958-39.824449z m-154.893638 131.82191l45.190485 174.019882a22.270163 22.270163 0 0 1 33.171455-24.59025l-151.415734-92.665432a22.283523 22.283523 0 0 0-24.318608 0.694691l-140.109207 97.180917a22.270163 22.270163 0 0 1 34.364897 23.414621l38.417256-162.708902a22.26571 22.26571 0 0 0-6.786589-21.677895L626.690672 199.727871a22.274616 22.274616 0 0 1-14.882401 38.826945h160.446706a22.26571 22.26571 0 0 0 20.422109-13.399504l74.576769-171.757686a22.261257 22.261257 0 0 1-40.64828 0.445314l79.101161 171.757686a22.26571 22.26571 0 0 0 20.226171 12.95419h160.468972a22.26571 22.26571 0 0 1-13.693412-39.828902l-133.34043 103.9586a22.296882 22.296882 0 0 0-7.85089 23.160792zM519.133933 194.023396H358.669415a22.274616 22.274616 0 0 1 20.226171 12.949737L299.789972 35.215447a22.270163 22.270163 0 0 0-40.64828 0.445314l-74.576769 171.757686a22.26571 22.26571 0 0 1 20.422109-13.399504H44.53142a22.26571 22.26571 0 0 0-14.877948 38.831398l133.344884 119.785067a22.274616 22.274616 0 0 1-6.791041-21.682349l-38.421709 162.708902a22.247897 22.247897 0 0 0 9.133394 23.51259 22.287976 22.287976 0 0 0 25.227049-0.093516L292.259709 419.895664a22.26571 22.26571 0 0 1-24.309702 0.69469l151.415733 92.665432a22.26571 22.26571 0 0 0 33.171455-24.59025L407.342257 314.650107a22.26571 22.26571 0 0 1-7.859796 23.156338l133.340431-103.9586a22.26571 22.26571 0 0 0-13.688959-39.824449zM364.240296 325.845306l45.190485 174.019882a22.26571 22.26571 0 0 1 33.171454-24.59025L291.190955 382.609506a22.26571 22.26571 0 0 0-24.309703 0.694691l-140.113659 97.180917a22.26571 22.26571 0 0 1 34.360444 23.414621l38.421709-162.708902a22.279069 22.279069 0 0 0-6.791042-21.682349L59.409367 199.723418A22.26571 22.26571 0 0 1 44.53142 238.554816h160.460065a22.261257 22.261257 0 0 0 20.422109-13.399504l74.576769-171.757686a22.26571 22.26571 0 1 1-40.64828 0.445314l79.101161 171.757686a22.26571 22.26571 0 0 0 20.226171 12.949737h160.464518a22.26571 22.26571 0 0 1-13.693411-39.828902L372.104544 302.688967a22.26571 22.26571 0 0 0-7.864248 23.156339z" fill="#6E6E96" /></svg>