<?xml version="1.0" standalone="no"?><!DOCTYPE svg PUBLIC "-//W3C//DTD SVG 1.1//EN" "http://www.w3.org/Graphics/SVG/1.1/DTD/svg11.dtd"><svg class="icon" width="200px" height="200.00px" viewBox="0 0 1024 1024" version="1.1" xmlns="http://www.w3.org/2000/svg"><path d="M755.096444 354.237242l-0.148013 536.559575c-0.016916 49.99454-40.936149 90.909544-90.939147 90.909544H208.120987c-50.002998 0-90.922231-40.915004-90.934918-90.909544L117.046514 313.618264" fill="#F0F0FF" /><path d="M751.39612 394.031577c64.846581 0 111.191545 10.855692 141.686439 33.192957 33.577791 24.587063 49.905733 65.108775 49.905733 123.861453 0 186.838842-197.043276 263.095106-199.030879 263.852086l14.890101 39.57443c9.248694-3.471961 226.438645-87.636344 226.438646-303.426516 0-72.166878-22.612147-125.324666-67.20633-157.976319-38.001264-27.83489-92.525-41.363272-166.679481-41.363272v42.285181h-0.004229z" fill="#6E6E96" /><path d="M776.173486 455.617644l0.008458 0.169158c-0.008458-0.232592-0.431352-23.373357 15.317224-37.717925 12.268158-11.177091 32.131494-15.203043 59.0191-11.972132l5.040898-41.989155c-39.97195-4.804077-71.283029 2.99409-93.070533 23.174597-30.050855 27.856034-28.638388 68.458097-28.570726 70.170818l42.255579-1.835361zM733.858702 724.929293c-0.19876 6.051615-0.896535 59.725334 35.510418 81.140691 23.753962 13.972421 54.802846 9.637757 92.28395-12.86021l-21.76213-36.254711c-22.210398 13.325393-40.098818 17.947626-49.085318 12.665679-11.824119-6.960837-15.038114-32.647424-14.687113-43.28744l-42.259807-1.404009z" fill="#6E6E96" /><path d="M552.174939 981.706361h111.834345c50.002998 0 90.922231-40.915004 90.939147-90.909544l0.148013-536.559575-202.921505-12.919415v640.388534z" fill="#6E6E96" /><path d="M319.968019 981.706361H208.133674c-50.002998 0-90.922231-40.915004-90.939147-90.909544l-0.148013-536.559575 202.921505-12.919415v640.388534z" fill="#FFFFFF" /><path d="M733.951739 354.228784l-0.148013 536.559575c-0.016916 38.474905-31.319537 69.769068-69.794442 69.769068H208.120987c-38.474905 0-69.777526-31.294163-69.790213-69.769068l-0.139555-577.174324-42.28941 0.008458 0.139555 577.170095c0.012687 61.784828 50.294795 112.05002 112.079623 112.05002h455.888297c61.77637 0 112.058478-50.265193 112.083852-112.045791l0.148013-536.559575-42.28941-0.008458z" fill="#6E6E96" /><path d="M695.89127 311.939374l-0.148013 536.559575c-0.016916 38.474905-31.319537 69.769068-69.794442 69.769068H170.060518c-19.199392 0-36.605713-7.798167-49.237559-20.383495v51.250536a111.288811 111.288811 0 0 0 49.237559 11.422369h455.888297c95.620585 0 112.05002-16.429436 112.083852-112.045791l0.148013-536.559575-42.28941-0.012687z" fill="#6E6E96" /><path d="M660.287816 80.760086c-29.94936 0-57.957636 8.009614-81.838466 21.905914C541.526466 65.578188 488.233352 42.28941 428.977431 42.28941c-56.896172 0-108.260889 21.499936-144.951182 56.046155-22.261145-12.200495-48.328338-19.224766-76.205516-19.224766C126.109135 79.110799 59.867003 139.394353 59.867003 213.756051c0 74.365927 66.242132 134.65371 147.95373 134.65371 21.263115 0 41.460537-4.118989 59.733791-11.46043C304.384371 381.619635 362.976348 410.515989 428.977431 410.515989c55.128475 0 105.072268-20.176277 141.500365-52.844847 25.504743 16.949595 56.443675 26.896065 89.805791 26.896065 87.314945 0 158.120104-68.009829 158.120103-151.903561s-70.792472-151.90356-158.115874-151.90356z" fill="#EBFEFF" /><path d="M660.287816 59.615381c-32.655882 0-64.630905 8.567834-92.474253 24.773136l25.627383 3.353551C551.29532 45.418826 491.35431 21.144705 428.977431 21.144705c-60.495001 0-117.12475 21.948204-159.447992 61.801744l24.658955-3.150561c-26.054505-14.276905-55.919287-21.825564-86.367661-21.825565C114.581042 57.966094 38.722298 127.853573 38.722298 213.756051s75.858743 155.798415 169.098435 155.798415c23.428333 0 46.175807-4.368496 67.616537-12.982849l-24.198-6.170025c42.576978 51.639598 107.364354 81.26333 177.738161 81.263331 58.469338 0 113.737368-20.692208 155.61657-58.249434l-25.817685 1.869192c29.966276 19.909854 65.070715 30.431459 101.5115 30.43146 98.851496 0 179.269037-77.622212 179.269037-173.048266-0.008458-95.421824-80.417542-173.052494-179.269037-173.052494z m136.971169 173.052494c0 72.099215-61.446513 130.758855-136.975398 130.758856-28.097084 0-55.098872-8.081506-78.10854-23.364899l-13.638335-9.062621-12.187808 10.927584c-34.106409 30.592159-79.34762 47.444489-127.379931 47.444489-57.708129 0-110.595265-24.011927-145.107653-65.869985l-9.844974-11.938301-14.357255 5.768276c-16.404062 6.592919-33.848444 9.938011-51.851045 9.938011C137.899422 327.265056 81.011708 276.344378 81.011708 213.756051c0-62.584098 56.887714-113.500547 126.809025-113.500547 23.364899 0 46.20118 5.742902 66.043371 16.623967l13.473406 7.383731 11.185549-10.530063C332.967783 81.297162 379.300061 63.434115 428.977431 63.434115c51.208246 0 100.225901 19.736468 134.488781 54.14736l11.515406 11.566154 14.107747-8.212604c21.394212-12.454231 46.015107-19.034463 71.198451-19.034463 75.524657 0.004229 136.97117 58.663869 136.971169 130.767313z" fill="#6E6E96" /><path d="M47.18018 175.695582C47.18018 261.60229 123.038924 331.493997 216.278615 331.493997c23.428333 0 46.175807-4.368496 67.616537-12.982849l-24.198-6.170024c42.576978 51.639598 107.364354 81.26333 177.73816 81.26333 58.469338 0 113.737368-20.692208 155.616571-58.249434l-25.817685 1.869192c29.966276 19.909854 65.070715 30.431459 101.5115 30.43146 93.104365 0 158.124333-71.16039 158.124332-173.048266h-42.28941c0 65.09186-35.814901 130.758855-115.834922 130.758856-28.092855 0-55.094643-8.081506-78.104311-23.364899l-13.638335-9.062621-12.183579 10.927584c-34.110638 30.592159-79.351849 47.444489-127.384161 47.444489-57.7039 0-110.595265-24.011927-145.107652-65.869985l-9.844974-11.9383-14.357255 5.768275c-16.404062 6.592919-33.848444 9.938011-51.851045 9.938011C146.357304 289.204587 89.46959 238.283909 89.46959 175.695582H47.18018z" fill="#6E6E96" /><path d="M656.058875 63.590586c-32.981511 0-65.235644 9.515117-93.265065 27.521948l27.124428 3.619973C547.713407 47.968878 487.518661 21.144705 424.74849 21.144705c-60.888292 0-117.780235 24.261434-160.188056 68.322771l26.177145-3.433901a168.371057 168.371057 0 0 0-87.145787-24.265663C110.352101 61.772141 34.493357 137.905766 34.493357 231.483772c0 45.317332 17.579708 87.919683 49.499754 119.970827 31.941191 32.072288 74.416675 49.745033 119.598681 49.745033 23.68207 0 46.662135-4.863282 68.301625-14.45875l-25.508972-6.673269c42.576978 56.976522 107.588488 89.653549 178.364045 89.653549 58.854172 0 114.388625-22.878571 156.37355-64.419458l-27.373935 2.021434c30.135433 22.100446 65.510525 33.772323 102.306541 33.772323 98.843038 0 179.264809-84.667628 179.264808-188.746094 0-104.082696-80.409084-188.758781-179.260579-188.758781z m136.971169 188.754552c0 80.755857-61.446513 146.456684-136.975398 146.456684-27.746082 0-54.472989-8.846945-77.305041-25.589322l-14.547557-10.665389-12.817921 12.686823c-34.013372 33.658141-78.98816 52.197819-126.62718 52.197819-57.306379 0-109.969381-26.494315-144.485997-72.687038l-10.094483-13.507238-15.414489 6.833969a125.476908 125.476908 0 0 1-51.165957 10.834547C133.670481 358.905993 76.782767 301.743397 76.782767 231.483772s56.887714-127.422221 126.809025-127.422221c23.047728 0 45.617586 6.279977 65.265246 18.159073l14.458749 8.745449 11.718396-12.175121C329.394328 83.094461 375.460182 63.434115 424.74849 63.434115c50.819184 0 99.574645 21.736757 133.77409 59.636526l12.022879 13.325393 15.101548-9.701191c21.199681-13.61719 45.549923-20.814848 70.407639-20.814847 75.528886 0 136.975399 65.705056 136.975398 146.465142z" fill="#6E6E96" /><path d="M196.943896 476.060345h42.28941v190.302345h-42.28941z" fill="#FFFFFF" /><path d="M312.448962 574.662333v226.256801a21.144705 21.144705 0 1 0 42.289409 0v-226.256801a21.144705 21.144705 0 1 0-42.289409 0z" fill="#6E6E96" /><path d="M516.524967 574.662333v226.256801c0 11.680335 9.46437 21.144705 21.144705 21.144705s21.144705-9.46437 21.144705-21.144705v-226.256801c0-11.680335-9.46437-21.144705-21.144705-21.144705s-21.144705 9.46437-21.144705 21.144705z" fill="#6E6E96" /></svg>