<?xml version="1.0" standalone="no"?><!DOCTYPE svg PUBLIC "-//W3C//DTD SVG 1.1//EN" "http://www.w3.org/Graphics/SVG/1.1/DTD/svg11.dtd"><svg class="icon" width="200px" height="173.71px" viewBox="0 0 1179 1024" version="1.1" xmlns="http://www.w3.org/2000/svg"><path d="M47.661347 510.262099c-3.913849 251.343377 235.583231 459.967712 534.968865 465.99561 299.37135 5.994569 545.277238-192.883235 549.195849-444.240895 3.923372-251.3529-258.409255-563.951345-534.959342-465.971804C310.893873 167.38608 51.603764 258.918722 47.661347 510.262099z" fill="#F0F0FF" /><path d="M217.056727 492.745006c-2.533051 162.781832 152.573448 297.885801 346.470855 301.79965 193.892646 3.875758 353.146301-124.91463 355.688874-287.710746 2.533051-162.786594-167.357512-365.240189-346.470855-301.785366C387.542462 270.679314 219.613585 329.963174 217.056727 492.745006z" fill="#DCDCEB" /><path d="M346.823197 486.955176c-1.709333 109.759179 101.069672 200.853774 229.545809 203.396347 128.509467 2.580664 234.050069-84.285831 235.768925-194.049771 1.69981-109.768701-101.045865-200.844251-229.54581-203.420154-228.550683 0-235.768925 194.073578-235.768924 194.073578z" fill="#FFCC4A" /><path d="M413.591935 541.887141a35.967414 35.967414 0 0 1-34.615184-26.673214c-0.733251-2.756835-17.545661-68.168582 25.425734-124.124242 36.700666-47.789904 103.059926-72.020533 197.230368-72.020533 19.72637 0 35.7103 15.988692 35.710301 35.7103s-15.98393 35.7103-35.710301 35.7103c-69.316073 0-117.767809 15.04594-140.122456 43.504668-21.759476 27.70167-13.788937 61.71216-13.441357 63.150095 5.089908 19.055016-6.27549 38.44809-25.330506 43.537998a35.424618 35.424618 0 0 1-9.146599 1.204628z" fill="#FFFFFF" /><path d="M590.895957 954.960086c-4.57568 0-9.15136-0.047614-13.741324-0.13808C261.275602 948.465573 17.193319 727.847338 21.478555 452.568538l71.411078 1.1094c-3.666257 235.421344 209.68136 424.18123 485.698173 429.737752 151.135513 2.94729 294.219544-49.589704 392.418109-144.350556 76.091508-73.4299 118.839118-167.45274 120.353234-264.746643l71.411078 1.114162c-1.814083 116.429863-52.303686 228.307853-142.169848 315.026745-108.754529 104.950192-264.718075 164.500688-429.704422 164.500688z" fill="#FFFFFF" /><path d="M23.854481 509.890712c-4.109065 263.994346 246.339173 483.88409 558.294833 490.169103 166.905182 3.342484 325.439869-55.350965 434.941933-161.024886 87.57594-84.504854 136.779972-193.402224 138.536919-306.637206 2.4283-155.439795-91.627869-332.796191-228.722092-431.280437C820.341777 24.563925 700.312316 4.142395 588.915225 43.609419l-1.21415 0.433285C299.895101 146.02656 28.054012 242.358665 23.854481 509.890712z m580.963731-421.40535c123.381468-43.714169 228.145966 3.766246 294.31001 51.294276 125.200312 89.942343 211.100249 251.07674 208.905256 391.865788-1.571253 100.484023-45.604434 197.47796-123.990923 273.121899-100.469739 96.941562-246.596288 150.77841-400.931444 147.688279-285.820481-5.7565-515.347245-203.958189-511.642897-441.822118 3.67578-234.445263 248.572258-321.226054 532.140609-421.714839l1.209389-0.433285z" fill="#6E6E96" /><path d="M85.504743 471.528326C141.55563 300.299818 358.064799 223.541718 603.604062 136.52762l1.21415-0.428524c123.381468-43.714169 228.145966 3.766246 294.31001 51.294275 93.970465 67.506751 165.79102 175.118551 194.859205 284.134955h48.865975c-29.934754-123.695718-110.078191-246.758174-215.947328-322.806829-106.554774-76.548599-226.593758-96.97013-337.981326-57.503106l-1.21415 0.433285C333.086635 181.87494 91.00889 267.703456 35.643641 471.528326h49.861102z" fill="#6E6E96" /><path d="M349.203883 446.483503c-1.709333 109.759179 82.024179 200.853774 210.500317 203.396347 128.509467 2.580664 243.572816-84.285831 245.291671-194.049772" fill="#FFCC4A" /><path d="M565.398802 673.743853c-2.056913 0-4.113827-0.019045-6.175501-0.061898-67.116319-1.328423-127.647658-25.644757-170.428598-68.468549-41.828665-41.861995-64.340438-98.365212-63.392925-159.101291 0.199978-13.150913 10.927352-23.768776 24.173493-23.435479a23.806867 23.806867 0 0 1 23.435479 24.173492c-1.585537 101.669605 77.134248 177.046907 187.169587 179.222855 64.445188 1.285571 128.457092-22.592717 171.2666-63.897631 31.934531-30.815608 49.137373-67.716252 49.75159-106.721422a23.806867 23.806867 0 0 1 23.792583-23.43548h0.380909a23.802105 23.802105 0 0 1 23.430719 24.178254c-0.799911 51.203809-23.635457 101.012536-64.297586 140.241491-51.108582 49.318305-123.376706 77.305658-199.10635 77.305658z" fill="#6E6E96" /><path d="M323.01633 486.58855c-1.909311 122.681546 111.53041 224.770152 252.876539 227.565079 74.448834 1.49031 145.559945-25.054347 195.082989-72.83949 41.0478-39.605104 64.121415-90.970799 64.964178-144.641 1.899788-122.667262-111.535171-224.755868-252.871777-227.588885-249.086486-0.009523-259.956701 214.818882-260.051929 217.504296z m259.099654-169.904847c115.210951 2.309266 207.714913 82.719339 206.219842 179.246662-0.642785 40.904959-18.550311 80.367221-50.413422 111.11617-40.481196 39.052784-99.18893 60.74084-161.07726 59.498121-115.215713-2.280698-207.724436-82.676487-206.219842-179.222854-0.004761 0.228546-0.004761 0.366626-0.019045 0.599933 0.314251-6.984935 9.965554-171.23327 211.509727-171.238032z" fill="#6E6E96" /></svg>