<?xml version="1.0" standalone="no"?><!DOCTYPE svg PUBLIC "-//W3C//DTD SVG 1.1//EN" "http://www.w3.org/Graphics/SVG/1.1/DTD/svg11.dtd"><svg class="icon" width="200px" height="200.00px" viewBox="0 0 1024 1024" version="1.1" xmlns="http://www.w3.org/2000/svg"><path d="M240.509095 826.686272S837.947223 173.437569 812.712599 387.93187 572.546274 878.518189 240.509095 826.686272z" fill="#FFDB26" /><path d="M320.851931 854.070044c-27.39639 0-55.516172-2.220647-83.585485-6.60306l-38.726736-6.047898 26.450092-28.923084c1.106118-1.211262 112.029112-122.33325 234.79135-241.873868 227.321902-221.358119 297.137694-246.96285 329.879618-246.962851 16.928227 0 27.118809 7.461037 32.683044 13.719224 10.396665 11.687837 14.076714 29.028229 11.254642 53.005327-12.65937 107.59623-69.904113 222.922666-153.132108 308.505892-68.848465 70.791531-187.11894 155.180318-359.614417 155.180318z m-36.7332-43.470845c12.356554 0.937887 24.624787 1.413139 36.7332 1.413139 157.813131 0 266.267338-77.461883 329.459041-142.445245 76.999248-79.169426 129.899431-185.373546 141.511564-284.091393 1.488843-12.68881-0.054675-18.055373-0.714981-19.670389a10.585925 10.585925 0 0 0-1.455196-0.088322c-8.983526 0-38.499624 6.893258-118.388237 70.711622-49.506126 39.551067-110.792615 94.835922-182.14772 164.319458-85.116386 82.895739-164.479277 166.523282-204.997671 209.85113z" fill="#6E6E96" /><path d="M311.632882 832.809874s-286.307834 0.933681-219.890305-173.475421c73.798657-131.619591 617.869761-90.003491 577.565861-542.758903 0 0 8.003581-74.517844 70.139637-74.517844 91.681594 0 78.744643 63.982388 78.744643 63.982388 0 174.278723 130.698528 175.090436 130.698528 347.800407 0 291.66178-236.435807 528.08497-528.093382 528.08497 0 0-155.323315-17.756764-124.255287-124.255287 28.826352-98.844021 405.196558-143.934088 457.377554-483.516419" fill="#FFDB26" /><path d="M311.632882 933.731545s519.046769 109.152365 632.413316-533.375829" fill="#FFDB26" /><path d="M307.305144 954.314587c8.483039 1.787453 209.82169 42.255377 393.563397-81.953646 136.557166-92.312459 225.340984-249.890067 263.882665-468.346204a21.028853 21.028853 0 0 0-41.418429-7.301218c-36.447208 206.541189-110.351009 344.784869-245.549711 416.0138-319.302105 168.230825-359.942466 50.868796-361.856092 50.469247l0.025235 49.972967a21.028853 21.028853 0 0 0-24.906574 16.242686 21.037265 21.037265 0 0 0 16.259509 24.902368z" fill="#6E6E96" /><path d="M125.111161 786.172083s348.36398 18.917556 614.715433-349.482714" fill="#FFDB26" /><path d="M123.971397 807.16729c3.722107 0.206083 92.594246 44.278353 215.444806 2.115503 112.714652-38.688884 276.634562-165.505485 417.456379-360.270517a21.028853 21.028853 0 0 0-34.079359-24.64161c-255.946376 354.01233-593.190299 340.974441-596.563327 340.802005l0.029441 0.004205a21.033059 21.033059 0 0 0-22.139177 19.859649 21.016236 21.016236 0 0 0 19.851237 22.130765z" fill="#6E6E96" /><path d="M337.759129 897.208633c7.381127-25.306122 56.714817-52.28614 113.837593-83.522398 122.707563-67.111482 308.156813-168.53364 344.141387-402.685713a21.028853 21.028853 0 1 0-41.574043-6.380154c-32.821834 213.611089-200.392352 305.254831-322.746631 372.172847-68.032545 37.208453-121.769677 66.594172-134.033704 108.651878a21.028853 21.028853 0 0 0 40.375398 11.76354zM153.239355 766.131586c-6.771291-18.097431-5.282448-40.19455 4.420265-65.668902l-1.3122 2.801043c19.926941-35.538762 65.248325-59.103694 146.945419-86.390734 93.519515-31.232053 199.513346-66.632024 281.752985-135.013648 97.695846-81.226048 138.983896-190.323738 126.244616-333.509198l-0.042057 4.117449c0.252346-2.191206 6.956345-55.734872 49.228545-55.734872 17.538063 0 31.459164 2.582343 41.376371 7.675531a21.033059 21.033059 0 0 0 19.21196-37.414535C805.146417 58.821908 784.756842 54.675018 760.476928 54.675018c-64.087533 0-87.580967 61.029937-91.046522 93.300815l-0.2187 2.052416 0.180848 2.056622c25.781374 289.567307-198.895098 364.598254-379.41939 424.892182-93.675129 31.282522-167.667251 55.99563-195.543099 105.71625l-0.757039 1.345847-0.550956 1.455196c-13.450054 35.320062-14.968338 67.410091-4.508586 95.374261a21.033059 21.033059 0 0 0 39.391247-14.737021h25.234624z" fill="#FFFFFF" /><path d="M311.56559 811.781021h0.012617c-42.2722 0.088321-160.084247-11.418667-197.095028-64.995979-14.547761-21.062499-15.557145-47.222392-3.08283-79.968523l-1.3122 2.801043c19.926941-35.538762 90.482949-59.103694 172.180043-86.390734 93.519515-31.232053 199.513346-66.632024 281.752985-135.013648 97.695846-81.226048 138.983896-190.323738 126.24041-333.509198l-0.037852 4.117449c0.24814-2.191206 6.952139-55.734872 49.22434-55.734872 25.491176 0 43.483462 5.517971 52.029588 15.969311 8.087697 9.887767 6.127808 22.694338 6.102573 22.816306l-0.420577 2.065033v2.102885c0 94.348052 37.065456 143.78268 69.773735 187.400727 31.328785 41.788537 60.920587 81.247077 60.920587 160.403886 0 135.442637-52.744569 262.772342-148.518378 358.550356-95.769603 95.769603-223.103514 148.514172-358.541945 148.514172l2.388878 0.134585c-20.881651-2.447758-79.859172-15.914636-101.367483-48.37898-9.067641-13.685578-10.733127-29.74321-5.088983-49.09396 7.381127-25.310328 56.714817-52.290346 113.837594-83.526604 122.711769-67.111482 308.156813-168.53364 344.141386-402.685714a21.028853 21.028853 0 0 0-41.574043-6.380154c-32.82604 213.611089-200.388147 305.254831-322.746631 372.168642-68.032545 37.212658-121.769677 66.598378-134.033703 108.656084-9.206432 31.564308-5.681996 59.890174 10.48078 84.207939 36.817316 55.398411 127.725048 66.379678 131.577534 66.821284l1.190233 0.134584h1.198644c146.67625 0 284.579263-57.118571 388.293566-160.832874 103.714303-103.710098 160.828668-241.604699 160.828669-388.280949 0-93.170436-35.248564-140.174129-69.327923-185.638509-31.560103-42.087147-61.370605-81.84009-61.370605-162.170309l-0.420577 4.167919c0.660306-3.259472 5.850227-32.577899-14.779078-57.783083C806.988545 31.593749 778.528095 21.028853 739.448075 21.028853c-64.087533 0-87.580967 61.029937-91.046522 93.300815l-0.218701 2.052416 0.180849 2.056622c25.781374 289.567307-198.895098 364.598254-379.41939 424.892182-93.675129 31.282522-167.667251 55.99563-195.543099 105.71625l-0.757039 1.345847-0.550956 1.455197c-17.529652 46.027954-14.89684 86.037449 7.822733 118.892929 57.206892 82.710685 224.684883 83.12285 231.784225 83.097616a21.028853 21.028853 0 0 0-0.134585-42.057706z" fill="#6E6E96" /></svg>