<?xml version="1.0" standalone="no"?><!DOCTYPE svg PUBLIC "-//W3C//DTD SVG 1.1//EN" "http://www.w3.org/Graphics/SVG/1.1/DTD/svg11.dtd"><svg class="icon" width="200px" height="200.00px" viewBox="0 0 1024 1024" version="1.1" xmlns="http://www.w3.org/2000/svg"><path d="M776.18314 426.73222l-2.318522 24.73366c-36.380091-109.993159-139.964194-189.38597-262.154433-189.385971-121.954247 0-225.368601 79.094716-261.935002 188.752517l-2.836049-30.000016C148.0873 444.303303 62.889904 517.605855 62.889904 623.628545c0 123.937412 100.470659 224.41221 224.412211 224.41221l-0.455424-4.823353h450.302478l-0.451284 4.819213c123.945692 0 224.41221-100.474799 224.412211-224.41221 0-109.103012-81.744455-176.683783-184.926956-196.892185z" fill="#FF8282" /><path d="M500.043052 150.302317m-108.900142 0a108.900142 108.900142 0 1 0 217.800283 0 108.900142 108.900142 0 1 0-217.800283 0Z" fill="#CCF7FF" /><path d="M888.966805 914.540929c0 37.431707-35.001399 68.056896-77.782266 68.056896H216.127635c-42.780868 0-77.786407-30.625189-77.786407-68.056896s35.005539-68.056896 77.786407-68.056896h595.056904c42.780868-0.00414 77.782267 30.625189 77.782266 68.056896z" fill="#E6B771" /><path d="M695.428197 910.400712c0 37.431707-35.001399 68.056896-77.778126 68.056895H309.973946c-42.780868 0-77.786407-30.625189-77.786407-68.056895s35.005539-68.056896 77.786407-68.056896h307.671985c42.780868-0.00414 77.782267 30.625189 77.782266 68.056896z" fill="#FFD28F" /><path d="M565.826968 910.400712c0 37.431707-35.001399 68.056896-77.782267 68.056895H405.203089c-42.780868 0-77.786407-30.621049-77.786407-68.056895 0-37.431707 35.005539-68.056896 77.786407-68.056896h82.841612c42.780868-0.00828 77.782267 30.625189 77.782267 68.056896z" fill="#FFF8ED" /><path d="M868.265718 914.540929c0 12.043893-5.605855 23.582679-15.782509 32.492427-10.955016 9.584604-25.623806 14.871661-41.306951 14.871662H216.127635c-31.478074 0-57.085319-21.243456-57.085319-47.355808 0-26.116492 25.611386-47.355808 57.085319-47.355808h595.056904c15.674864 0 30.343654 5.274637 41.30281 14.871661 10.168374 8.889047 15.778369 20.423693 15.778369 32.475866z m-57.081179-88.762123H216.127635c-54.307233 0-98.487494 39.816472-98.487494 88.757983 0 48.937371 44.180261 88.757983 98.487494 88.757983h595.056904c25.710751 0 50.05937-8.918029 68.570282-25.114559 19.293414-16.875527 29.921352-39.476974 29.921353-63.639284s-10.623798-46.763757-29.921353-63.647564c-18.510913-16.200671-42.859532-25.114559-68.570282-25.114559z" fill="#6E6E96" /><path d="M505.458456 339.795933c29.788865 29.242356-10.011046 73.455739-56.464286 120.774285-46.453241 47.318546-81.963886 79.827534-111.756892 50.585178-29.793005-29.246497-16.287616-91.316638 30.169765-138.635184 46.453241-47.322686 108.262548-61.974916 138.051413-32.724279zM170.432054 516.140218s-104.474249 73.66275-45.542392 140.767395c0 0 38.297012 26.911414 38.297012-38.297012s42.43723-102.470384 7.24538-102.470383z" fill="#FFFFFF" /><path d="M802.316193 454.148741c-31.341447-81.715473-108.461278-156.868702-268.638014-170.33269 38.475041 4.359649 243.560716 42.06047 185.332697 348.246117 0 0-4.140218 52.787773 52.787774 52.787773 17.343371 0 36.889338-34.744705 44.892378-83.789722 2.355784-6.375935 3.755177-13.298379 3.755177-20.75077 0-47.612502 49.877201-70.4251 62.716016-21.239316l-0.008281-0.057963c7.220539 33.419836 3.266632 66.032329-0.604472 89.610868-25.160102 153.188048-199.508802 145.561768-199.508802 145.561768s-14.821979 0-39.423151-0.19045c-17.761533-2.997517-47.024591-3.092742-42.602838-15.41817 78.664133-218.976105-82.158477 33.862839-367.833486 14.308591-27.706336-1.89622 28.335649 2.252278 0 0-16.991453 1.014353-31.813431 1.295888-44.1637 1.295889h-39.522517c22.104621 36.901759 98.669664 31.58986 98.669664 31.589859h498.759585c112.543533 0 149.6109 2.446869 190.872308-128.599296 57.996167-184.177577-101.269721-234.468799-135.480338-243.022488z m-268.638014-170.328549c-3.929066-0.443003-6.127522-0.542368-6.127522-0.542369 2.082529 0.149048 4.065694 0.368479 6.127522 0.542369z m-339.783512 232.320026c0 64.173372 52.183302 180.140864 75.720438 156.603727s-77.550414-159.394234-22.675971-251.907395c0 0-93.796628 19.454882-127.878899 100.085619 0-0.00414 74.834432-68.955323 74.834432-4.781951z" fill="#D66D6D" /><path d="M279.721376 645.269462c-15.554797-33.655828-23.441912-69.67158-23.441911-107.049464 0-68.230785 26.567776-132.375175 74.81373-180.62113 48.241815-48.241815 112.390345-74.813731 180.61699-74.813731 140.8502 0 255.43486 114.5888 255.43486 255.434861 0 34.488012-6.748555 67.936829-20.067634 99.419043a20.709368 20.709368 0 0 0 11.004698 27.130845 20.701088 20.701088 0 0 0 27.130845-11.000558c15.484414-36.611944 23.334266-75.480306 23.334266-115.54105 0-163.675219-133.161816-296.837036-296.837035-296.837036-79.289306 0-153.829782 30.877742-209.892468 86.940428-56.066826 56.058545-86.940428 130.599022-86.940428 209.888328 0 43.422601 9.170582 85.288481 27.259193 124.421817a20.705228 20.705228 0 0 0 37.584894-17.372353z" fill="#6E6E96" /><path d="M287.302115 827.339668C174.973873 827.339668 83.590992 735.956786 83.590992 623.628545c0-105.351975 90.571399-164.238289 168.130093-182.649836a20.701088 20.701088 0 1 0-9.563902-40.284317C142.622213 424.322614 42.188817 502.419537 42.188817 623.628545c0 135.161541 109.960037 245.113298 245.113298 245.113298a20.701088 20.701088 0 1 0 0-41.402175zM772.204391 447.048267c105.322994 20.630704 168.204617 86.642332 168.204617 176.576138 0 112.328242-91.382881 203.711123-203.711123 203.711122-11.435281 0-20.701088 9.265807-20.701087 20.701088s9.265807 20.701088 20.701087 20.701088c135.161541 0 245.113298-109.960037 245.113298-245.113298 0-109.616399-77.264739-192.847192-201.649294-217.208232a20.701088 20.701088 0 0 0-7.957498 40.632094z" fill="#6E6E96" /><path d="M497.467836 93.088651s-77.587676 14.594267-61.6851 67.411022c0 0 14.614968 24.94067 31.337306-11.696115s50.121473-46.689233 30.347794-55.714907z" fill="#FFFFFF" /><path d="M523.60503 67.303376c28.530239 12.089435 38.292872 29.138851 38.292872 60.823936 0 42.913355-36.487737 77.699462-81.491902 77.699462-44.308608 0-70.114584-23.574399-71.224162-65.560345a92.359973 92.359973 0 0 0-2.765665 22.390297c0 53.317721 45.339522 96.545732 101.26144 96.545732 55.930199 0 101.26558-43.228011 101.26558-96.545732 0-48.15901-36.980423-88.070707-85.338163-95.35335z" fill="#A6D7E0" /><path d="M500.043052 62.103263c48.639275 0 88.199054 39.568059 88.199054 88.199054s-39.572199 88.199054-88.199054 88.199054c-48.630995 0-88.199054-39.563919-88.199054-88.199054C411.843998 101.667181 451.407917 62.103263 500.043052 62.103263zM370.441823 150.302317c0 71.460154 58.136934 129.601229 129.601229 129.601229 71.464295 0 129.601229-58.136934 129.601229-129.601229C629.644281 78.838022 571.503206 20.701088 500.043052 20.701088S370.441823 78.838022 370.441823 150.302317z" fill="#6E6E96" /><path d="M866.427461 607.626604c-4.206461 26.004706-16.892087 45.587935-28.36049 43.733118-11.460122-1.850677-5.080047-22.45654-0.873586-48.452966 4.206461-26.004706 4.637044-47.562819 16.093026-45.712142 11.455982 1.842397 17.339231 24.419003 13.14105 50.43199z" fill="#FFFFFF" /></svg>