<?xml version="1.0" standalone="no"?><!DOCTYPE svg PUBLIC "-//W3C//DTD SVG 1.1//EN" "http://www.w3.org/Graphics/SVG/1.1/DTD/svg11.dtd"><svg class="icon" width="200px" height="114.99px" viewBox="0 0 1781 1024" version="1.1" xmlns="http://www.w3.org/2000/svg"><path d="M1710.920262 626.677486c0 307.071403-367.19406 326.643593-820.124203 326.643593C437.844719 953.342276 70.657724 933.748889 70.657724 626.677486 70.657724 319.599017 437.844719 70.657724 890.788993 70.657724s820.131269 248.941293 820.131269 556.019762z" fill="#FFC894" /><path d="M993.369877 110.190721l-0.197842-0.042395c10.160581 2.324639 249.040214 61.528746 300.443708 458.5333a35.307665 35.307665 0 0 0 39.582457 30.488808A35.328862 35.328862 0 0 0 1363.694074 559.580911c-58.144241-448.994507-343.241092-515.822583-355.351826-518.45105a35.328862 35.328862 0 1 0-14.972371 69.06086zM638.116972 130.434159l-0.275565-0.063592c8.82515 2.084403 216.947476 55.395656 297.419557 440.96779a35.321796 35.321796 0 1 0 69.159781-14.435373C913.9082 123.212939 663.822252 63.733267 653.223593 61.415694a35.328862 35.328862 0 0 0-15.106621 69.018465z" fill="#6E6E96" /><path d="M890.796059 798.163782c256.13425-256.13425-408.514697-15.45991-554.500621-64.086555C209.528415 691.845105 119.503409 624.614281 85.594767 520.768624A385.508542 385.508542 0 0 0 70.657724 626.677486c0 307.071403 367.186995 326.643593 820.117137 326.643593 452.944274 0 820.124203-19.579255 820.124203-326.643593 0-36.226215-5.150948-71.646932-14.929977-105.922994-72.939969 223.433855-1018.912644 491.148906-805.173028 277.40929z" fill="#DEAE81" /><path d="M1675.5914 626.677486c0 270.414176-325.272833 291.31473-784.795341 291.314731-325.675582 0.007066-604.907841-9.644779-723.711739-128.434545C125.96859 748.456074 105.986586 695.187215 105.986586 626.677486 105.986586 339.56689 458.045762 105.986586 890.788993 105.986586s784.802407 233.580304 784.802407 520.6909zM890.788993 35.328862c-226.041125 0-439.052966 59.995473-599.742762 168.942618C126.145235 316.066131 35.328862 466.079545 35.328862 626.677486 35.328862 713.643013 62.850046 785.261682 117.115178 839.519748c137.930943 137.930943 431.987193 149.130192 773.659683 149.116061 212.41125 0 432.905744-3.829649 589.822418-49.594656 178.756976-52.124203 265.651845-154.316469 265.651845-312.398996 0-160.597941-90.816373-310.597223-255.696172-422.391874C1329.841959 95.324336 1116.851315 35.328862 890.788993 35.328862z" fill="#6E6E96" /></svg>