<?xml version="1.0" standalone="no"?><!DOCTYPE svg PUBLIC "-//W3C//DTD SVG 1.1//EN" "http://www.w3.org/Graphics/SVG/1.1/DTD/svg11.dtd"><svg class="icon" width="200px" height="200.00px" viewBox="0 0 1024 1024" version="1.1" xmlns="http://www.w3.org/2000/svg"><path d="M790.684164 578.42374l-66.24821 367.424681c-3.698372 20.516576-23.806739 37.334779-44.678456 37.334779h-335.506832c-20.867635 0-40.97192-16.805957-44.674374-37.334779l-66.252292-367.424681" fill="#FFC894" /><path d="M679.757498 1003.593641h-335.506832c-30.840177 0-59.284168-23.77-64.758248-54.120326l-66.252292-367.424681a20.410441 20.410441 0 0 1 40.17183-7.249788l66.252292 367.42468c1.943074 10.75222 13.658667 20.54515 24.586418 20.54515h335.506832c10.931832 0 22.65559-9.788848 24.5905-20.541068l66.24821-367.42468a20.414523 20.414523 0 0 1 40.175913 7.241624l-66.24821 367.424681c-5.47408 30.350326-33.922153 54.124408-64.766413 54.124408z" fill="#6E6E96" /><path d="M624.281919 910.003604a20.410441 20.410441 0 0 1-20.304307-22.704575l24.49253-216.350677a20.381867 20.381867 0 0 1 22.57803-17.985681 20.410441 20.410441 0 0 1 17.985681 22.57803l-24.49253 216.350677a20.414523 20.414523 0 0 1-20.259404 18.112226zM391.557986 910.003604a20.410441 20.410441 0 0 1-20.328799-18.875576l-16.328353-216.350677a20.406359 20.406359 0 0 1 18.814345-21.884075c11.189004-0.877649 21.039083 7.568192 21.888157 18.814344l16.328353 216.350677a20.406359 20.406359 0 0 1-20.373703 21.945307zM509.958956 910.003604a20.410441 20.410441 0 0 1-20.410441-20.410441v-216.350677a20.410441 20.410441 0 1 1 40.820882 0v216.350677a20.410441 20.410441 0 0 1-20.410441 20.410441z" fill="#6E6E96" /><path d="M724.431872 945.844338l66.24821-367.42468H233.324l8.617288 47.793089c0.053067 0 409.502846 2.820723 395.909493 143.297626-13.593354 140.485067-46.25006 213.660581-46.25006 213.66058h88.152695c20.871717 0.008164 40.980084-16.801875 44.678456-37.326615z" fill="#6E6E96" /><path d="M218.387639 415.385135s27.966387-222.281951 292.342832-222.281951c269.458645 0 294.881891 222.281951 294.88189 222.281951" fill="#F086C6" /><path d="M805.587869 435.799659a20.414523 20.414523 0 0 1-20.255322-18.091815c-0.991947-8.282557-27.362237-204.190136-274.602076-204.190136-242.467877 0-271.005756 196.12393-272.099756 204.4718a20.439016 20.439016 0 0 1-22.843366 17.614211 20.390031 20.390031 0 0 1-17.65095-22.765807c0.314321-2.477828 8.13152-61.410936 50.719947-120.523655 39.318674-54.569356 116.666082-119.621514 261.874125-119.621514 147.828744 0 225.731316 65.052158 265.045907 119.621514 42.661904 59.21069 49.830051 118.270343 50.111715 120.752252a20.410441 20.410441 0 0 1-20.300224 22.73315z" fill="#6E6E96" /><path d="M511.995918 116.31094m-75.490058 0a75.490058 75.490058 0 1 0 150.980116 0 75.490058 75.490058 0 1 0-150.980116 0Z" fill="#FFB5E1" /><path d="M511.995918 212.211439c-52.879371 0-95.900499-43.021128-95.900499-95.896417C416.095419 63.431569 459.116547 20.410441 511.995918 20.410441s95.900499 43.021128 95.900499 95.900499c0 52.879371-43.021128 95.900499-95.900499 95.900499z m0-150.980115c-30.370737 0-55.079617 24.70888-55.079617 55.079616 0 30.366654 24.70888 55.075535 55.079617 55.075535s55.079617-24.70888 55.079617-55.075535c0-30.370737-24.704798-55.079617-55.079617-55.079616z" fill="#6E6E96" /><path d="M614.239982 415.23818c0-211.986925-98.745715-219.359176-98.745714-219.359176s-105.73425-20.512493-105.73425 219.804124" fill="#FFB5E1" /><path d="M409.755936 436.089487a20.410441 20.410441 0 0 1-20.410441-20.410441c0-110.347009 21.741202-184.228725 64.623539-219.587773 29.358379-24.210865 57.986063-21.439127 64.394942-20.42677 13.715816 1.718559 116.286448 21.900403 116.286447 239.573677a20.410441 20.410441 0 1 1-40.820882 0c0-187.788305-79.057803-198.948735-79.857892-199.005884-1.024604-0.07756-1.265447-0.065313-2.163507-0.269417-2.077783-0.236761-16.867189-1.359335-33.007766 12.585078-22.18615 19.169486-48.629917 67.195255-48.629917 187.131089a20.414523 20.414523 0 0 1-20.414523 20.410441z" fill="#6E6E96" /><path d="M895.189705 502.541802c0 41.747516-34.146668 75.88602-75.88602 75.88602H204.688151c-41.73527 0-75.877856-34.138504-75.877856-75.88602v-7.490632c0-41.73527 34.146668-75.877856 75.877856-75.877857h614.615534c41.739352 0 75.88602 34.146668 75.88602 75.877857v7.490632z" fill="#FFC894" /><path d="M819.303685 419.173313h-48.376828c5.53123 6.257841 8.462169 12.723869 8.462169 19.340934 0 55.230654-201.961316 100.002998-451.078915 100.002998-69.734313 0-135.770255-3.510596-194.719691-9.780683 10.735892 28.909349 38.56757 49.687178 71.093649 49.687178h614.615534c41.739352 0 75.88602-34.138504 75.88602-75.886021v-7.490631c0.004082-41.727106-34.142586-75.873774-75.881938-75.873775z" fill="#E6B485" /><path d="M874.779264 502.541802c0 14.732256-5.792483 28.648095-16.312024 39.167636-10.519541 10.515459-24.427216 16.307943-39.163555 16.307943H204.688151c-30.583005 0-55.467415-24.888492-55.467415-55.475579v-7.490632c0-30.578923 24.88441-55.467415 55.467415-55.467415h614.615534c30.583005 0 55.475579 24.888492 55.475579 55.467415v7.490632z m40.820883-7.490632c0-53.09164-43.196658-96.288297-96.296462-96.288298H204.688151C151.596511 398.762872 108.399853 441.955448 108.399853 495.05117v7.490632c0 53.099804 43.196658 96.296462 96.288298 96.296461h614.615534c25.631432 0 49.797394-10.037855 68.023919-28.268461 18.234688-18.230606 28.272543-42.388404 28.272543-68.028v-7.490632z" fill="#6E6E96" /></svg>