<?xml version="1.0" standalone="no"?><!DOCTYPE svg PUBLIC "-//W3C//DTD SVG 1.1//EN" "http://www.w3.org/Graphics/SVG/1.1/DTD/svg11.dtd"><svg class="icon" width="200px" height="200.00px" viewBox="0 0 1024 1024" version="1.1" xmlns="http://www.w3.org/2000/svg"><path d="M512 40.634921C251.672381 40.634921 40.634921 251.672381 40.634921 512c0 260.323556 211.03746 471.365079 471.365079 471.365079 260.323556 0 471.365079-211.041524 471.365079-471.365079 0-260.327619-211.041524-471.365079-471.365079-471.365079z m0 591.238095c-66.202413 0-119.873016-53.670603-119.873016-119.873016s53.670603-119.873016 119.873016-119.873016 119.873016 53.670603 119.873016 119.873016-53.670603 119.873016-119.873016 119.873016z" fill="#D49753" /><path d="M512.581079 961.015873C262.432508 961.015873 58.920635 757.504 58.920635 507.355429h40.634921c0 227.742476 185.283048 413.025524 413.025523 413.025523s413.025524-185.283048 413.025524-413.025523h40.634921c0 250.148571-203.511873 453.660444-453.660445 453.660444z" fill="#6E6E96" /><path d="M512 611.555556c-54.893714 0-99.555556-44.657778-99.555556-99.555556 0-54.893714 44.661841-99.555556 99.555556-99.555556 54.897778 0 99.555556 44.661841 99.555556 99.555556 0 54.897778-44.657778 99.555556-99.555556 99.555556z m140.190476-99.555556c0-77.29981-62.890667-140.190476-140.190476-140.190476S371.809524 434.70019 371.809524 512s62.890667 140.190476 140.190476 140.190476 140.190476-62.890667 140.190476-140.190476z" fill="#6E6E96" /><path d="M512 40.634921C258.856635 40.634921 52.349968 240.188952 41.142857 490.569143c0 0 88.746667-27.152254 132.571429 52.918857 89.872254 164.205714 185.652825 64.142222 219.733333-49.269841 1.259683-8.472381 3.413333-16.648127 6.351238-24.441905v-0.008127C416.885841 424.407365 460.665905 392.126984 512 392.126984c66.202413 0 119.873016 53.670603 119.873016 119.873016 0 0 110.453841 6.810413 143.238095 76.190476 65.52381 138.666667 206.136889 26.579302 206.136889-120.803555l0.008127-0.004064C958.768762 227.986286 757.268317 40.634921 512 40.634921z" fill="#FFA1D7" /><path d="M303.746032 324.063492m-40.634921 0a40.634921 40.634921 0 1 0 81.269841 0 40.634921 40.634921 0 1 0-81.269841 0Z"  /><path d="M555.68254 194.031746m-24.380953 0a24.380952 24.380952 0 1 0 48.761905 0 24.380952 24.380952 0 1 0-48.761905 0Z"  /><path d="M771.047619 380.952381m-56.888889 0a56.888889 56.888889 0 1 0 113.777778 0 56.888889 56.888889 0 1 0-113.777778 0Z"  /><path d="M956.883302 497.903746c-5.20127 0-10.40254-1.982984-14.364445-5.948952a20.23619 20.23619 0 0 1-5.904254-12.96254c-9.849905-103.533714-57.685333-199.375238-134.733206-269.913397-77.657397-71.098921-178.452317-110.25473-283.82273-110.25473-210.440127 0-389.664508 157.106794-416.893969 365.437968a20.345905 20.345905 0 0 1-22.779936 17.513651 20.31746 20.31746 0 0 1-17.513651-22.779936C90.737778 230.497524 287.284825 58.189206 518.058667 58.189206c115.553524 0 226.092698 42.942984 311.263492 120.917334 84.618159 77.47454 137.106286 182.800254 147.797333 296.578031a20.31746 20.31746 0 0 1-20.23619 22.219175z" fill="#FFFFFF" /><path d="M858.022603 714.40254c-27.513905 0.004063-68.307302-12.27581-97.796063-74.691048-26.900317-56.929524-125.135238-64.528254-126.118603-64.59327a20.31746 20.31746 0 0 1-19.065905-20.276825c0-54.893714-44.657778-99.555556-99.555556-99.555556-41.211937 0-78.661079 25.912889-93.188063 64.483556a98.864762 98.864762 0 0 0-5.266286 20.276825 20.780698 20.780698 0 0 1-0.637968 2.860699c-19.496635 64.869587-65.084952 143.018667-129.414096 149.76-46.868317 4.912762-89.831619-27.578921-127.601777-96.589207-35.470222-64.812698-105.825524-44.149841-108.804064-43.243682a20.313397 20.313397 0 0 1-25.372444-13.482667 20.31746 20.31746 0 0 1 13.482666-25.372444c36.165079-11.068952 115.386921-12.222984 156.338794 62.589968 20.041143 36.62019 51.573841 79.412825 87.718603 75.68254 35.24673-3.693714 73.923048-52.841651 94.333969-119.718604a139.499683 139.499683 0 0 1 7.196444-27.091301c20.451556-54.308571 73.183492-90.79873 131.214222-90.79873 71.127365 0 130.052063 53.248 139.012064 121.969777 35.462095 5.371937 113.298286 24.003048 142.470095 85.731556 12.946286 27.392 35.978159 58.35581 72.350476 50.184127 45.925587-10.300952 95.097905-77.978413 95.097905-162.304 0-5.38819 2.137397-10.556952 5.953016-14.368508a20.309333 20.309333 0 0 1 34.681905 14.884571c-0.203175 95.479873-57.022984 185.77473-126.837842 201.439493-5.168762 1.162159-12.109206 2.22273-20.191492 2.22273z" fill="#6E6E96" /><path d="M512 20.31746C248.364698 20.31746 32.625778 226.47873 20.845714 489.658921a20.31746 20.31746 0 0 0 26.242032 20.337777c2.90946-0.86146 73.667048-20.955429 108.804064 43.243683 37.766095 69.006222 80.700952 101.501968 127.601777 96.59327 64.329143-6.741333 109.91746-84.894476 129.414096-149.764064 0.280381-0.938667 0.495746-1.893587 0.637968-2.864762a98.352762 98.352762 0 0 1 5.266286-20.256508 20.382476 20.382476 0 0 0 0-0.016254c14.526984-38.570667 51.976127-64.483556 93.188063-64.483555 54.897778 0 99.555556 44.661841 99.555556 99.555555a20.31746 20.31746 0 0 0 19.061841 20.276826c0.954921 0.065016 98.925714 7.029841 126.118603 64.59327 38.15619 80.737524 95.223873 77.576127 117.983492 72.468317 69.936762-15.685079 126.841905-106.288762 126.841905-201.955555a20.313397 20.313397 0 0 1-0.085334-1.901715c-11.402159-121.315556-67.360508-233.626413-157.590349-316.233143C753.078857 66.108952 635.205079 20.31746 512 20.31746z m460.166095 428.893461l-0.008127 0.004063a20.321524 20.321524 0 0 0-11.231492 18.171937c0 84.31746-49.180444 152.003048-95.097905 162.304-36.343873 8.155429-59.40419-22.784-72.354539-50.180064-37.485714-79.327492-155.351365-87.482921-160.357588-87.791746a20.31746 20.31746 0 0 1 19.065905 20.280889c0-77.29981-62.89473-140.190476-140.190476-140.190476-58.026667 0-110.758603 36.486095-131.214222 90.79873a139.389968 139.389968 0 0 0-7.436191 28.627302c0.146286-0.967111 0.357587-1.926095 0.637969-2.864762-20.301206 67.551492-59.257905 117.32927-94.732191 121.051428-36.18946 3.791238-67.67746-39.062349-87.718603-75.682539-40.951873-74.821079-120.169651-73.658921-156.338794-62.598096a20.325587 20.325587 0 0 1 26.242032 20.337778C72.244825 250.063238 270.153143 60.952381 512 60.952381c113.021968 0 221.151492 42.000254 304.453079 118.267936 82.777397 75.78819 134.127746 178.801778 144.570921 290.064254a20.329651 20.329651 0 0 1 11.142095-20.07365z" fill="#6E6E96" /><path d="M512 20.31746C240.88381 20.31746 20.31746 240.88381 20.31746 512s220.566349 491.68254 491.68254 491.68254c271.120254 0 491.68254-220.566349 491.68254-491.68254S783.120254 20.31746 512 20.31746z m451.047619 491.68254c0 248.710095-202.337524 451.047619-451.047619 451.047619S60.952381 760.710095 60.952381 512 263.289905 60.952381 512 60.952381s451.047619 202.337524 451.047619 451.047619z" fill="#6E6E96" /></svg>