<?xml version="1.0" standalone="no"?><!DOCTYPE svg PUBLIC "-//W3C//DTD SVG 1.1//EN" "http://www.w3.org/Graphics/SVG/1.1/DTD/svg11.dtd"><svg class="icon" width="200px" height="184.84px" viewBox="0 0 1108 1024" version="1.1" xmlns="http://www.w3.org/2000/svg"><path d="M868.237745 786.02684l98.516148-381.402243-189.597281 189.601669-213.750108-370.864184h-2.787034L346.864973 594.226266 157.272081 404.624597l98.511759 381.402243" fill="#E8B974" /><path d="M744.97625 808.937572l43.890292-212.670407-230.103631-355.353355-241.194707 349.625672 54.11234 218.39809z" fill="#FFD28F" /><path d="M922.060409 476.161383l-144.903797 118.064883-216.537142-348.919038-1.777556 2.905537-4.472421-7.298955L437.805657 430.809544l1.474714 12.561402-92.415398 150.85532-162.16146-138.548482 175.561166 237.011962 89.685422-158.650236 31.745847 269.837511h144.837962l39.681212-292.0855 105.569318 167.248345z" fill="#FFEACC" /><path d="M976.120081 885.745582c0 42.244405-39.501262 76.80801-87.780583 76.80801h-671.521458c-48.279321 0-87.780583-34.563604-87.780583-76.80801s39.501262-76.80801 87.780583-76.80801h671.521458c48.279321 0 87.780583 34.563604 87.780583 76.80801z" fill="#E8BF82" /><path d="M889.489424 791.513126l98.511759-381.402243a21.940757 21.940757 0 1 0-36.766897-21.001504l-189.588503 189.601669a21.936368 21.936368 0 0 1 34.524103 4.555813l-213.750108-370.864185a21.945146 21.945146 0 0 0-19.013274-10.98574h-2.787034a21.945146 21.945146 0 0 0-19.017663 10.98574l-213.754497 370.864185a21.945146 21.945146 0 0 1 34.532881-4.555813L172.787299 389.109379a21.945146 21.945146 0 0 0-36.766897 21.001504l98.511759 381.402243a21.945146 21.945146 0 0 0 42.498969-10.972572l-98.511759-381.406633a21.945146 21.945146 0 0 1-36.766897 21.005894l189.592892 189.601669a21.949535 21.949535 0 0 0 34.532881-4.555812l213.758887-370.864184a21.953924 21.953924 0 0 1-19.013275 10.98574h2.795812a21.953924 21.953924 0 0 1-19.013274-10.98574l213.754497 370.864184c3.397109 5.912022 9.374966 9.906039 16.142849 10.797012s13.5621-1.413267 18.381254-6.2412l189.584114-189.601669a21.958313 21.958313 0 0 1-26.404399 3.541946 21.923201 21.923201 0 0 1-10.358109-24.54784l-98.50737 381.406633a21.940757 21.940757 0 1 0 42.490191 10.972572z" fill="#6E6E96" /><path d="M558.762911 155.569138m-98.511759 0a98.511759 98.511759 0 1 0 197.023518 0 98.511759 98.511759 0 1 0-197.023518 0Z" fill="#FF8FB1" /><path d="M558.762911 79.002525c42.213682 0 76.562224 34.348542 76.562224 76.549057 0 42.218071-34.348542 76.566613-76.562224 76.566613-42.22246 0-76.571002-34.348542-76.571002-76.566613 0-42.200515 34.348542-76.549057 76.571002-76.549057zM438.301617 155.569138c0 66.432345 54.037727 120.456905 120.461294 120.456905 66.419178 0 120.452516-54.037727 120.452516-120.456905C679.215427 89.14996 625.1777 35.112233 558.762911 35.112233c-66.423567 0-120.461294 54.037727-120.461294 120.456905z" fill="#6E6E96" /><path d="M150.148687 392.396761m-79.924221 0a79.924221 79.924221 0 1 0 159.848442 0 79.924221 79.924221 0 1 0-159.848442 0Z" fill="#FF8FB1" /><path d="M958.076782 392.396761m-79.92422 0a79.924221 79.924221 0 1 0 159.848441 0 79.924221 79.924221 0 1 0-159.848441 0Z" fill="#FF8FB1" /><path d="M150.148687 334.417686c31.969688 0 57.979075 26.022554 57.979075 57.983464 0 31.965299-26.009387 57.979075-57.979075 57.979075S92.169612 424.36645 92.169612 392.40115c0-31.974077 26.009387-57.983464 57.979075-57.983464zM48.279321 392.40115c0 56.179573 45.698571 101.869366 101.869366 101.869367s101.869366-45.689793 101.869366-101.869367c0-56.175184-45.698571-101.873755-101.869366-101.873755S48.279321 336.225966 48.279321 392.40115zM958.076782 334.417686c31.969688 0 57.983464 26.022554 57.983464 57.983464 0 31.965299-26.013776 57.979075-57.983464 57.979075-31.965299 0-57.974686-26.013776-57.974686-57.979075 0-31.974077 26.004998-57.983464 57.974686-57.983464zM856.211805 392.40115c0 56.179573 45.694182 101.869366 101.864977 101.869367 56.175184 0 101.873755-45.689793 101.873756-101.869367 0-56.175184-45.698571-101.873755-101.873756-101.873755-56.170795 0-101.864977 45.698571-101.864977 101.873755z" fill="#6E6E96" /><path d="M540.824949 128.655611m-31.491284 0a31.491284 31.491284 0 1 0 62.982568 0 31.491284 31.491284 0 1 0-62.982568 0Z" fill="#FFFFFF" /><path d="M943.513984 374.717752m-21.264847 0a21.264846 21.264846 0 1 0 42.529693 0 21.264846 21.264846 0 1 0-42.529693 0Z" fill="#FFFFFF" /><path d="M135.155763 379.449125m-20.286092 0a20.286093 20.286093 0 1 0 40.572185 0 20.286093 20.286093 0 1 0-40.572185 0Z" fill="#FFFFFF" /><path d="M838.633743 881.356553c0 42.244405-39.501262 76.80801-87.780583 76.80801H348.488914c-48.279321 0-87.780583-34.563604-87.780583-76.80801s39.501262-76.80801 87.780583-76.80801h402.364246c48.279321 0 87.780583 34.563604 87.780583 76.80801z" fill="#FFD28F" /><path d="M693.422714 881.356553c0 42.244405-39.501262 76.80801-87.780583 76.80801H458.214642c-48.279321 0-87.780583-34.563604-87.780582-76.80801s39.501262-76.80801 87.780582-76.80801h147.427489c48.279321 0 87.780583 34.563604 87.780583 76.80801z" fill="#FFF2DE" /><path d="M954.174935 885.745582c0 30.266745-29.533777 54.862864-65.835437 54.862864h-671.521458c-36.30166 0-65.835437-24.596119-65.835438-54.862864 0-30.253578 29.533777-54.862864 65.835438-54.862864h671.521458c36.306049 0 65.835437 24.609286 65.835437 54.862864z m-65.835437-98.753156h-671.521458c-60.502767 0-109.725729 44.30286-109.725729 98.753156s49.222962 98.753156 109.725729 98.753156h671.521458c60.502767 0 109.725729-44.30286 109.725729-98.753156s-49.218573-98.753156-109.725729-98.753156z" fill="#6E6E96" /></svg>