<?xml version="1.0" standalone="no"?><!DOCTYPE svg PUBLIC "-//W3C//DTD SVG 1.1//EN" "http://www.w3.org/Graphics/SVG/1.1/DTD/svg11.dtd"><svg class="icon" width="200px" height="200.00px" viewBox="0 0 1024 1024" version="1.1" xmlns="http://www.w3.org/2000/svg"><path d="M376.156433 519.589793L163.283697 859.398747l166.256981-38.556845 38.556845 166.256981 212.864341-339.813151" fill="#FF9999" /><path d="M358.368069 508.454227L145.499531 848.263181a20.986743 20.986743 0 0 0 22.52717 31.589246l166.256981-38.552647a20.995138 20.995138 0 0 1-25.188289-15.706479l38.556845 166.248586a20.982546 20.982546 0 1 0 38.233649 6.400957l212.855946-339.813152-35.576727-22.275329-212.860144 339.813151a20.986743 20.986743 0 0 1 38.233649 6.39676l-38.556845-166.244389a20.995138 20.995138 0 0 0-25.184092-15.706479L158.540693 838.966054a20.986743 20.986743 0 1 1 22.527171 31.589246l212.872735-339.808954-35.57253-22.292119z" fill="#6E6E96" /><path d="M304.39856 616.200167c2.753461 4.65486 69.189096 114.293804 218.83297 138.76015l6.770324-41.427831c-130.49557-21.322531-188.910072-117.731433-189.485109-118.701021l-36.118185 21.368702z" fill="#6E6E96" /><path d="M431.536251 647.285732l212.868538 339.813151 38.552648-166.256981 166.256981 38.556845-212.864341-339.808954" fill="#A8D6F7" /><path d="M654.130046 508.454227l212.876933 339.808954a20.986743 20.986743 0 0 1-22.52717 31.589246l-166.261179-38.552647a21.003533 21.003533 0 0 0 25.192487-15.706479l-38.56524 166.248586a20.978349 20.978349 0 0 1-38.229451 6.400957l-212.864341-339.813152 35.57253-22.275329 212.860143 339.813151a20.978349 20.978349 0 0 0-38.229451 6.39676l38.561042-166.244389a20.990941 20.990941 0 0 1 25.184092-15.706479l166.248586 38.561042a20.965757 20.965757 0 0 0-21.817818 8.260383 20.982546 20.982546 0 0 0-0.705155 23.328863l-212.872735-339.808954 35.576727-22.300513z" fill="#6E6E96" /><path d="M712.296904 616.200167c-2.753461 4.65486-69.180701 114.293804-218.83297 138.76015l-6.770324-41.427831c130.499768-21.322531 188.910072-117.731433 189.485109-118.701021l36.118185 21.368702z" fill="#6E6E96" /><path d="M373.973811 601.689933a41.973487 41.973487 0 0 1-40.848597-51.618994l29.74661-125.979223L258.307474 330.163447a41.969289 41.969289 0 0 1 28.050881-73.197564H406.939788l57.873044-133.291004a41.981881 41.981881 0 0 1 38.040571-25.255447h0.461708a41.973487 41.973487 0 0 1 38.124518 24.415977l61.776578 134.134672H724.469215a41.973487 41.973487 0 0 1 25.8053 75.077976L648.929531 411.046356l34.791823 133.933199a41.973487 41.973487 0 0 1-62.5321 46.359716L504.750604 520.093475l-106.856102 74.108388a41.914724 41.914724 0 0 1-23.920691 7.48807z m129.3413-173.65271c7.576214 0 15.169218 2.048306 21.901765 6.170103l51.11951 31.274445-15.59315-60.026283a41.981881 41.981881 0 0 1 14.81664-43.656624l26.795874-20.890204h-26.023561a41.973487 41.973487 0 0 1-38.124518-24.415978L504.444198 243.18179l-31.467523 72.47562a41.973487 41.973487 0 0 1-38.50228 25.255447h-38.582029l41.599923 37.368995a41.973487 41.973487 0 0 1 12.801913 40.869584l-10.32128 43.711189 39.421499-27.341529a41.931513 41.931513 0 0 1 23.92069-7.483873z"  /><path d="M843.631944 351.964476c0 182.78614-148.183198 330.965141-330.977732 330.965141-182.773548 0-330.977733-148.187395-330.977733-330.965141C181.668084 169.157349 329.872269 20.986743 512.650014 20.986743c182.80293-0.004197 330.98193 148.170606 330.98193 330.977733z" fill="#FFD28F" /><path d="M235.557844 369.202987c0-161.555951 130.965673-292.500637 292.500637-292.500637 70.742115 0 151.04579 25.116934 201.636434 66.935119C676.044404 78.69609 579.471805 37.31443 488.657969 37.31443c-161.518174 0-292.488045 130.936292-292.488045 292.49644 0 90.788652 41.373266 182.206906 106.293658 235.840627-41.788803-50.573854-66.905738-125.723185-66.905738-196.44851z" fill="#FFFFFF" /><path d="M577.129685 27.316345c127.070534 35.908318 220.222293 152.649177 220.222293 291.228841 0 167.159411-135.528191 302.679208-302.708589 302.679208-167.155214 0-302.6918-135.528191-302.6918-302.679208a302.586866 302.586866 0 0 1 13.670764-90.196826 329.911606 329.911606 0 0 0-23.958466 123.624511c0 182.777746 148.199987 330.969338 330.977733 330.969338 182.811324 0 330.986127-148.174803 330.986127-330.969338 0.004197-160.741665-114.57083-294.653877-266.498062-324.656526z" fill="#E8B76D" /><path d="M822.645201 351.964476c0 170.924433-139.066556 309.978397-309.990989 309.978397-170.92863 0-309.995187-139.053964-309.995187-309.978397C202.654828 181.035846 341.717187 41.973487 512.650014 41.973487c82.809492 0 160.649323 32.239835 219.206535 90.788652 58.553014 58.548817 90.788652 136.397043 90.788652 219.202337zM512.650014 0C318.577204 0 160.681341 157.891665 160.681341 351.964476c0 194.064416 157.891665 351.951884 351.964476 351.951884 194.077008 0 351.968673-157.883271 351.968673-351.951884 0-94.02061-36.613473-182.408379-103.09108-248.885987C695.054196 36.605078 606.666427 0 512.650014 0z" fill="#6E6E96" /><path d="M667.292932 291.761904H558.67814L505.132563 175.507938 454.65105 291.761904H346.040456l90.259786 81.080184-26.006772 110.13843 94.839093-65.780849 102.49086 62.729376-30.590277-117.794393z" fill="#FFFFFF" /><path d="M410.29347 503.967261a20.995138 20.995138 0 0 1-20.424299-25.809497l23.144181-98.024881L332.017114 307.371844a20.986743 20.986743 0 0 1 14.023342-36.600881h94.843291l44.995578-103.624144a20.995138 20.995138 0 0 1 19.018186-12.625625c8.210014-0.293814 15.828202 4.688438 19.295212 12.20589l47.925327 104.048077h95.174882a20.986743 20.986743 0 0 1 12.906847 37.541086L600.811126 370.206153l27.127465 104.446825c2.149043 8.281369-0.944403 17.041236-7.815464 22.136817s-16.159792 5.502724-23.454784 1.040942l-90.818033-55.585488-83.594397 57.977977a20.94477 20.94477 0 0 1-11.962443 3.744035z m94.839093-107.754335c3.786009 0 7.584609 1.024153 10.950883 3.085051l58.158463 35.593517-17.528128-67.484972a20.982546 20.982546 0 0 1 7.412518-21.826213l42.111999-32.835859H558.67814a20.986743 20.986743 0 0 1-19.06016-12.20589l-33.922972-73.642483-31.794917 73.222748a20.982546 20.982546 0 0 1-19.249041 12.625625H400.807462l49.516122 44.483501a20.995138 20.995138 0 0 1 6.400957 20.436891l-13.431516 56.886667 49.877094-34.594548a20.94477 20.94477 0 0 1 11.962444-3.744035z" fill="#6E6E96" /><path d="M618.838739 350.528983H558.67814a20.986743 20.986743 0 0 1-19.06016-12.20589l-33.922972-73.64668-31.794917 73.222748a20.986743 20.986743 0 0 1-19.249041 12.629822H388.093692a20.986743 20.986743 0 0 1 0-41.973487h52.790055l44.995578-103.628342a20.986743 20.986743 0 0 1 19.018186-12.625624c8.210014-0.251841 15.828202 4.688438 19.295212 12.20589l47.925327 104.052273h46.720689a20.986743 20.986743 0 1 1 0 41.96929z" fill="#6E6E96" /></svg>