<?xml version="1.0" standalone="no"?><!DOCTYPE svg PUBLIC "-//W3C//DTD SVG 1.1//EN" "http://www.w3.org/Graphics/SVG/1.1/DTD/svg11.dtd"><svg class="icon" width="200px" height="200.00px" viewBox="0 0 1024 1024" version="1.1" xmlns="http://www.w3.org/2000/svg"><path d="M599.831765 424.163986m-381.677904 0a381.677903 381.677903 0 1 0 763.355807 0 381.677903 381.677903 0 1 0-763.355807 0Z" fill="#FFD75E" /><path d="M599.831765 827.082806c-222.173447 0-402.923069-180.749622-402.923069-402.91882 0-222.173447 180.749622-402.923069 402.923069-402.923069s402.923069 180.749622 402.923069 402.923069c0 222.169198-180.749622 402.91882-402.923069 402.91882z m0-763.351557c-198.744278 0-360.432737 161.68846-360.432738 360.432737 0 198.740029 161.68846 360.428488 360.432738 360.428489 198.740029 0 360.432737-161.68846 360.432737-360.428489 0-198.744278-161.692709-360.432737-360.432737-360.432737z" fill="#6E6E96" /><path d="M637.329483 656.947269c-140.162857 0-254.19841-114.035552-254.206908-254.202659 0-114.48595 93.134558-207.624757 207.616259-207.624757 93.929127 0 170.347989 76.414613 170.347989 170.34374 0 29.896197-23.157231 74.787233-60.569968 95.174094-29.212103 15.916878-61.687464 14.094043-91.464688-5.107338a21.245166 21.245166 0 0 1 23.02976-35.704626c16.804926 10.839284 32.539096 11.982274 48.103304 3.505453 23.450414-12.776843 38.41126-42.80476 38.41126-57.863334 0-70.499959-57.357699-127.853408-127.857657-127.853409-91.052532 0-165.125927 74.077644-165.125928 165.130177 0.008498 116.737938 94.982888 211.712327 211.716577 211.712327 112.238211 0 213.335458-45.558134 270.433965-121.866521 40.671746-54.357881 53.350861-117.358296 35.691879-177.397135a21.249415 21.249415 0 0 1 40.765224-11.990771c21.525602 73.198095 6.45853 149.497983-42.435094 214.839615-65.082441 86.981958-178.897044 138.905144-304.455974 138.905144zM42.494581 1002.754834a21.236668 21.236668 0 0 1-15.024581-36.265498l287.451343-287.455593a21.245166 21.245166 0 1 1 30.044914 30.040665l-287.451344 287.455592A21.160185 21.160185 0 0 1 42.494581 1002.754834z" fill="#6E6E96" /><path d="M633.097446 737.283739c-85.08264 0-170.21202-35.989311-233.556607-98.734784-63.54854-62.945178-99.992498-147.772876-99.992498-232.728045 0-86.731265 31.085927-167.581869 87.530084-227.658949 57.744361-61.462265 136.831615-95.310063 222.696077-95.310063 103.557437 0 210.450364 49.938887 272.324786 127.224551 48.026822 59.98785 65.741041 131.983469 49.875151 202.717124a31.867749 31.867749 0 0 1-62.193098-13.945327c14.790884-65.96624-12.194725-117.405036-37.442481-148.937111C782.094043 187.148666 694.725423 146.591645 609.770253 146.591645c-68.082259 0-130.674766 26.713672-176.245647 75.216385-45.294694 48.205281-70.240767 113.555412-70.240767 184.008631 0 142.623048 126.081562 267.731581 269.813607 267.73158 17.603744 0 31.867749 14.264004 31.867748 31.867749s-14.264004 31.867749-31.867748 31.867749z" fill="#FFFFFF" /><path d="M649.949111 420.203887a31.867749 31.867749 0 0 1-22.536872-54.400372c5.14133-5.14133 11.153712-12.934057 10.597089-20.8755-0.488639-7.010905-6.029378-14.846122-15.593952-22.052482-12.836329-9.6708-25.056549-13.197497-38.483493-11.098474-30.80974 4.814155-60.412754 38.224302-69.216751 50.690965-10.125446 14.344736-29.981178 17.833192-44.359906 7.745988-14.374479-10.087205-17.913924-29.857956-7.873459-44.266428 4.763166-6.832445 48.332752-67.045495 111.248187-77.081711 30.435825-4.848147 60.527478 3.135786 87.041445 23.110492 24.52117 18.483294 39.018872 42.813258 40.811963 68.511411 1.23222 17.599495-2.817109 44.100715-29.105877 70.385234a31.753025 31.753025 0 0 1-22.528374 9.330877z" fill="#FFFFFF" /><path d="M599.831765 788.841508c-222.173447 0-402.923069-180.749622-402.923069-402.91882h42.490331c0 198.740029 161.68846 360.428488 360.432738 360.428488 198.740029 0 360.432737-161.68846 360.432737-360.428488h42.490332c0 222.169198-180.749622 402.91882-402.923069 402.91882z" fill="#6E6E96" /><path d="M626.715398 621.221398c-140.162857 0-254.19841-114.035552-254.206908-254.202659 0-114.481701 93.134558-207.620508 207.616259-207.620508 93.929127 0 170.347989 76.414613 170.347989 170.34374 0 29.896197-23.157231 74.787233-60.565719 95.174094-29.203605 15.916878-61.683215 14.10679-91.468937-5.107338a21.249415 21.249415 0 0 1 23.02976-35.708875c16.804926 10.839284 32.547594 11.982274 48.103304 3.505453 23.450414-12.776843 38.41126-42.80476 38.41126-57.863334 0-70.499959-57.357699-127.853408-127.857657-127.853409-91.052532 0-165.125927 74.077644-165.125927 165.130177 0.008498 116.737938 94.982888 211.712327 211.716576 211.712327 112.238211 0 213.335458-45.558134 270.433965-121.87077 40.671746-54.353632 53.350861-117.354047 35.691879-177.392886a21.249415 21.249415 0 0 1 40.765224-11.990771c21.525602 73.198095 6.45853 149.493734-42.435094 214.835366-65.082441 86.981958-178.897044 138.909393-304.455974 138.909393z" fill="#6E6E96" /></svg>