<?xml version="1.0" standalone="no"?><!DOCTYPE svg PUBLIC "-//W3C//DTD SVG 1.1//EN" "http://www.w3.org/Graphics/SVG/1.1/DTD/svg11.dtd"><svg class="icon" width="200px" height="200.00px" viewBox="0 0 1024 1024" version="1.1" xmlns="http://www.w3.org/2000/svg"><path d="M750.148963 285.553894c-62.606106-63.788931-90.638629-146.034939-81.067363-216.841404C619.954678 51.30031 567.09538 41.795918 512 41.795918 252.3136 41.795918 41.795918 252.3136 41.795918 512S252.3136 982.204082 512 982.204082 982.204082 771.6864 982.204082 512a469.995102 469.995102 0 0 0-21.478923-140.864784c-69.861878 6.428212-149.349355-23.196735-210.576196-85.581322zM512 663.443331c-83.637812 0-151.439151-67.809698-151.439151-151.443331s67.801339-151.439151 151.439151-151.439151c83.650351 0 151.443331 67.805518 151.443331 151.439151 0 83.641992-67.79298 151.443331-151.443331 151.443331z" fill="#FFA1D7" /><path d="M423.509682 192.980114m-35.526531 0a35.526531 35.526531 0 1 0 71.053061 0 35.526531 35.526531 0 1 0-71.053061 0Z"  /><path d="M201.991314 464.653584m-18.808163 0a18.808163 18.808163 0 1 0 37.616327 0 18.808163 18.808163 0 1 0-37.616327 0Z"  /><path d="M329.468865 771.853584m-41.795918 0a41.795918 41.795918 0 1 0 83.591837 0 41.795918 41.795918 0 1 0-83.591837 0Z"  /><path d="M642.938253 801.110727m-12.538775 0a12.538776 12.538776 0 1 0 25.077551 0 12.538776 12.538776 0 1 0-25.077551 0Z"  /><path d="M800.717845 586.906645m-36.571429 0a36.571429 36.571429 0 1 0 73.142857 0 36.571429 36.571429 0 1 0-73.142857 0Z"  /><path d="M16.718367 472.231184c0 270.799935 220.306286 491.102041 491.102041 491.10204s491.102041-220.306286 491.102041-491.10204a20.897959 20.897959 0 1 0-41.795918 0c0 247.749486-201.560816 449.306122-449.306123 449.306122-247.749486 0-449.306122-201.556637-449.306122-449.306122a20.897959 20.897959 0 0 0-41.795919 0z" fill="#6E6E96" /><path d="M377.279216 472.231184c0-71.980931 58.560261-130.541192 130.541192-130.541192 34.874514 0 67.659233 13.579494 92.314645 38.234906 24.647053 24.655412 38.230727 57.435951 38.230727 92.306286a20.897959 20.897959 0 1 0 41.795918 0c0-46.034024-17.926269-89.309518-50.472751-121.86018-32.550661-32.550661-75.838694-50.476931-121.868539-50.476931-95.0272 0-172.33711 77.30991-172.33711 172.337111a20.897959 20.897959 0 0 0 41.795918 0z" fill="#6E6E96" /><path d="M957.607184 389.930841c-66.514024 6.118922-138.942171-23.564539-193.74916-79.412245-56.261486-57.323102-84.394318-131.866122-75.270269-199.399967a20.910498 20.910498 0 0 0-13.729959-22.498743c-52.63778-18.657698-107.837649-28.116114-164.061518-28.116115-270.795755 0-491.102041 220.306286-491.102041 491.102041a20.897959 20.897959 0 1 0 41.795918 0c0-247.749486 201.556637-449.306122 449.306123-449.306122 51.459135 0 101.956963 8.651755 150.101681 25.717028a20.897959 20.897959 0 0 1-13.729959-22.498742c-10.846041 80.231445 21.625208 167.810612 86.860278 234.278661 63.504718 64.71262 148.521796 99.010351 227.407412 91.754579a20.902139 20.902139 0 0 0-3.828506-41.620375z" fill="#FFFFFF" /><path d="M510.796278 682.155363c-71.980931 0-130.541192-58.564441-130.541192-130.545371s58.560261-130.537012 130.541192-130.537012c34.878694 0 67.659233 13.579494 92.314644 38.234906s38.226547 57.435951 38.226547 92.302106c0 34.878694-13.575314 67.659233-38.226547 92.310465-24.663771 24.655412-57.435951 38.234906-92.314644 38.234906z m172.33711-130.545371c0-46.034024-17.92209-89.309518-50.468572-121.856-32.550661-32.550661-75.834514-50.476931-121.868538-50.476931-95.0272 0-172.33711 77.30991-172.337111 172.332931 0 95.0272 77.30991 172.34129 172.337111 172.34129 46.038204 0 89.317878-17.926269 121.868538-50.476931 32.546482-32.550661 50.468571-75.830335 50.468572-121.864359z" fill="#FFFFFF" /><path d="M765.061747 270.912784c-56.261486-57.323102-84.398498-131.866122-75.270269-199.399968a20.897959 20.897959 0 0 0-13.72996-22.498743C623.423739 30.356376 568.223869 20.897959 512 20.897959 241.204245 20.897959 20.897959 241.204245 20.897959 512S241.204245 1003.102041 512 1003.102041 1003.102041 782.795755 1003.102041 512c0-50.150922-7.552522-99.645649-22.436049-147.117453a20.89378 20.89378 0 0 0-21.855086-14.557518c-66.514024 6.118922-138.942171-23.564539-193.749159-79.412245z m175.726759 106.475102C954.409796 420.809665 961.306122 466.099722 961.306122 512c0 247.745306-201.560816 449.306122-449.306122 449.306122C264.250514 961.306122 62.693878 759.745306 62.693878 512 62.693878 264.250514 264.250514 62.693878 512 62.693878c51.459135 0 101.961143 8.651755 150.101682 25.717028a20.897959 20.897959 0 0 1-13.72996-22.498743c-10.846041 80.231445 21.625208 167.810612 86.860278 234.278661 63.508898 64.71262 148.521796 99.006171 227.403233 91.75458a20.89378 20.89378 0 0 1-21.846727-14.557518z" fill="#6E6E96" /><path d="M512 642.545371c-71.980931 0-130.541192-58.564441-130.541192-130.545371s58.560261-130.541192 130.541192-130.541192c34.874514 0 67.659233 13.579494 92.314645 38.234906 24.647053 24.655412 38.230727 57.435951 38.230726 92.306286 0 71.98511-58.560261 130.545371-130.545371 130.545371z m172.34129-130.545371c0-46.034024-17.926269-89.309518-50.472751-121.86018-32.550661-32.550661-75.838694-50.476931-121.868539-50.47693-95.0272 0-172.33711 77.30991-172.33711 172.33711 0 95.0272 77.30991 172.34129 172.33711 172.34129 46.042384 0 89.317878-17.926269 121.868539-50.476931 32.546482-32.550661 50.472751-75.821976 50.472751-121.864359z" fill="#6E6E96" /></svg>