<?xml version="1.0" standalone="no"?><!DOCTYPE svg PUBLIC "-//W3C//DTD SVG 1.1//EN" "http://www.w3.org/Graphics/SVG/1.1/DTD/svg11.dtd"><svg class="icon" width="200px" height="200.00px" viewBox="0 0 1024 1024" version="1.1" xmlns="http://www.w3.org/2000/svg"><path d="M368.631798 527.329243c3.547297-11.015074 85.241746-271.341546-55.12048-411.699672a20.508706 20.508706 0 0 1-18.987265 34.509252c3.629315 0.816083 363.702491 84.417461 363.702491 307.962771a20.504606 20.504606 0 1 0 41.009211 0c0-107.275995-69.354778-201.699704-200.56785-273.072135-96.338839-52.40157-191.184942-74.013424-195.171037-74.907425a20.504606 20.504606 0 0 0-18.987264 34.509252c122.838991 122.838991 45.877004 367.676284 45.085526 370.136836a20.504606 20.504606 0 1 0 39.036668 12.561121z" fill="#80968A" /><path d="M313.511318 144.631286l89.121217-89.121218a20.504606 20.504606 0 0 0-28.997613-28.997613L284.509604 115.629571a20.504606 20.504606 0 0 0 0 28.997614 20.512807 20.512807 0 0 0 29.001714 0.004101z" fill="#80968A" /><path d="M484.630453 553.435707c49.670356-49.658054 90.983036-68.440272 90.983035-68.440272 30.494449-17.117245 65.663949-26.877437 103.121762-26.877437 116.507169 0 210.955483 94.448314 210.955483 210.959583 0 116.507169-94.448314 210.94318-210.955483 210.94318-163.384798-0.004101-243.771053-276.918799-194.104797-326.585054z" fill="#D69DCA" /><path d="M499.127209 567.940665c46.024638-46.020537 84.638911-64.134305 85.024397-64.310645a23.293232 23.293232 0 0 0 1.496836-0.762771c28.267649-15.866464 60.447577-24.252847 93.086808-24.252848 105.012287 0 190.450877 85.434489 190.450877 190.454978 0 105.004085-85.43859 190.442675-190.450877 190.442675-96.100985 0-149.269427-110.331181-163.274073-144.143275-29.719375-71.745615-29.543036-134.23135-16.333968-147.428114z m179.608041 332.580601c127.624766 0 231.460088-103.827121 231.460088-231.451887s-103.835322-231.464189-231.460088-231.464189c-39.655907 0-78.782795 10.203092-113.160817 29.502027a21.037725 21.037725 0 0 1 1.546048-0.787377c-1.820809 0.832487-45.286472 20.918799-96.990885 72.610909-35.050573 35.050573-20.713753 124.163588 7.43907 192.136356 43.953672 106.107233 119.156364 169.454161 201.166584 169.454161z" fill="#6E6E96" /><path d="M658.076278 613.171577a51.946368 61.243156 73.847 1 0-28.903299-99.791281 51.946368 61.243156 73.847 1 0 28.903299 99.791281Z" fill="#FFBBF1" /><path d="M802.037645 504.692159a203.487705 203.487705 0 0 1 32.758158 110.970925c0 112.95167-91.565366 204.517036-204.512936 204.517036a203.512311 203.512311 0 0 1-110.970925-32.758158c36.436684 56.27694 99.717998 93.550212 171.758879 93.550213 112.947569 0 204.508835-91.565366 204.508835-204.517037 0-72.040881-37.269171-135.322195-93.542011-171.762979z" fill="#6E6E96" /><path d="M365.56841 751.723444m-231.267345 0a231.267345 231.267345 0 1 0 462.53469 0 231.267345 231.267345 0 1 0-462.53469 0Z" fill="#D69DCA" /><path d="M365.56841 540.964806c116.211902 0 210.758638 94.546736 210.758638 210.76684 0 116.211902-94.546736 210.758638-210.758638 210.758638S154.809772 867.935346 154.809772 751.723444c0-116.216003 94.546736-210.758638 210.758638-210.758638zM113.800561 751.723444C113.800561 890.551926 226.744029 1003.495394 365.56841 1003.495394s251.767849-112.943468 251.76785-251.77195-112.943468-251.77195-251.76785-251.77195S113.800561 612.899063 113.800561 751.723444z" fill="#6E6E96" /><path d="M343.053695 734.504269a66.980344 75.178086 55.248 1 0-76.361001-110.065724 66.980344 75.178086 55.248 1 0 76.361001 110.065724Z" fill="#FFBBF1" /><path d="M492.701065 563.257413a230.102683 230.102683 0 0 1 37.047722 125.484085c0 127.727289-103.540056 231.263244-231.263244 231.263244a230.094481 230.094481 0 0 1-125.479984-37.03952c41.197853 63.642195 112.767129 105.78326 194.215522 105.78326 127.723188 0 231.263244-103.535955 231.263244-231.267345 0-81.456596-42.141065-153.02177-105.78326-194.223724z" fill="#6E6E96" /></svg>